<svg width="427" height="230" viewBox="0 0 427 230" fill="none" xmlns="http://www.w3.org/2000/svg">
<path d="M1.54303 223.869L1.23089 224.572H2H43.6569H43.9944L44.1206 224.259L65.3148 171.679H171.898L193.092 224.259L193.218 224.572H193.556H235.213H235.982L235.67 223.869L136.612 0.797076L136.48 0.5H136.155H101.058H100.733L100.601 0.797076L1.54303 223.869ZM333.83 229.5C360.817 229.5 378.754 219.149 390.052 207.902L389.747 224.063L389.738 224.572H390.247H426H426.5V224.072V54.2219V53.7219H426H390.903H390.403V54.2219V69.4586C378.369 57.9222 357.972 48.794 333.83 48.794C281.71 48.794 244.768 89.4461 244.768 139.311C244.768 189.179 281.713 229.5 333.83 229.5ZM118.769 44.0062L158.034 137.169H79.1813L118.769 44.0062ZM392.371 138.983C392.371 157.428 386.181 171.913 376.121 181.787C366.058 191.662 352.085 196.961 336.454 196.961C304.942 196.961 281.193 170.932 281.193 138.983C281.193 107.037 304.939 81.3329 336.454 81.3329C352.085 81.3329 366.058 86.6316 376.121 96.4671C386.182 106.3 392.371 120.703 392.371 138.983Z" stroke="url(#paint0_linear_204_2290)"/>
<defs>
<linearGradient id="paint0_linear_204_2290" x1="2" y1="115.367" x2="464.079" y2="115.367" gradientUnits="userSpaceOnUse">
<stop stopColor="#162029"/>
<stop offset="1" stopColor="#162029" stop-opacity="0"/>
</linearGradient>
</defs>
</svg>
