<svg width="364" height="230" viewBox="0 0 364 230" fill="none" xmlns="http://www.w3.org/2000/svg">
<path d="M170.884 226.037L171.005 226.364H171.354H206.792H207.515L207.26 225.688L122.583 0.823795L122.462 0.5H122.116H86.9904H86.6448L86.5227 0.823224L1.53229 225.687L1.2765 226.364H2H37.1252H37.4736L37.5943 226.037L61.3086 161.759H147.17L170.884 226.037ZM115.047 68.8729L115.052 68.8917L115.059 68.91L137.4 131.279H71.7061L94.0471 68.91L94.0472 68.91L94.0507 68.8995C94.8882 66.3871 95.9344 63.1436 97.1894 59.1698L97.1914 59.1629C98.4473 54.9769 99.7027 50.4781 100.958 45.6669C102.209 41.3765 103.308 37.3902 104.255 33.7082C105.032 36.5509 106.017 40.0169 107.209 44.1056L107.211 44.1112L109.406 51.3244L111.601 58.5376L111.605 58.5504L111.61 58.5629C113.282 63.1601 114.426 66.5939 115.047 68.8729ZM362.126 226.364H362.626V225.864V111.393C362.626 91.4511 357.378 76.7558 346.777 67.4264C336.194 57.9033 320.161 53.1878 298.775 53.1878C287.442 53.1878 276.526 54.6568 266.027 57.5961C255.754 60.322 246.624 63.784 238.641 67.9853L238.228 68.2027L238.417 68.6297L249.08 92.7783L249.292 93.2581L249.761 93.0235C256.845 89.4815 264.347 86.4596 272.268 83.9582C280.162 81.4655 288.474 80.218 297.207 80.218C307.374 80.218 315.185 82.7072 320.71 87.6185C326.195 92.4944 329.01 101.096 329.01 113.589V122.513L300.641 123.438C273.842 124.276 253.762 129.196 240.474 138.265L240.471 138.267C227.36 147.36 220.812 160.589 220.812 177.88C220.812 189.445 223.125 199.157 227.782 206.989L227.785 206.994C232.435 214.603 238.781 220.315 246.814 224.12L246.821 224.124L246.829 224.127C255.053 227.712 264.217 229.5 274.313 229.5C283.751 229.5 291.746 228.557 298.286 226.658C305.032 224.76 310.945 221.806 316.017 217.791C321.227 213.831 326.222 208.847 331.006 202.842H331.64L338.123 225.999L338.226 226.364H338.605H362.126ZM266.771 155.388L266.773 155.386C274.17 149.839 287.415 146.6 306.634 145.764C306.635 145.764 306.636 145.764 306.638 145.764L328.696 145.151V159.377C328.696 173.913 324.443 184.73 316.013 191.926C307.546 199.154 296.796 202.783 283.722 202.783C275.653 202.783 268.968 200.819 263.635 196.924C258.575 193.075 255.996 186.874 255.996 178.194C255.996 168.298 259.594 160.719 266.771 155.388Z" stroke="url(#paint0_linear_204_2357)"/>
<defs>
<linearGradient id="paint0_linear_204_2357" x1="2" y1="115.367" x2="394.469" y2="115.367" gradientUnits="userSpaceOnUse">
<stop stopColor="#162029"/>
<stop offset="1" stopColor="#162029" stop-opacity="0"/>
</linearGradient>
</defs>
</svg>
