<svg xmlns="http://www.w3.org/2000/svg" width="26.749" height="26.2" viewBox="0 0 26.749 26.2">
  <path id="Combined_Shape" data-name="Combined Shape" d="M10.7,26.2a1.35,1.35,0,0,1-.934-.383,1.325,1.325,0,0,1-.4-.957V14.044L1.534,7.892A3.986,3.986,0,0,1,0,4.737V2.675A2.678,2.678,0,0,1,2.675,0h21.4a2.678,2.678,0,0,1,2.675,2.675V4.737a3.983,3.983,0,0,1-1.534,3.155l-7.829,6.152v8.935a1.34,1.34,0,0,1-.893,1.261l-5.349,1.883A1.342,1.342,0,0,1,10.7,26.2ZM2.675,2.675V4.737a1.332,1.332,0,0,0,.512,1.052l7.829,6.151a2.663,2.663,0,0,1,1.022,2.1v8.929l2.675-.941V14.044a2.661,2.661,0,0,1,1.023-2.1l7.828-6.151a1.332,1.332,0,0,0,.512-1.052V2.675Z" fill="#838f98"/>
</svg>
