<svg xmlns="http://www.w3.org/2000/svg" width="25" height="25" viewBox="0 0 25 25">
  <path id="Combined_Shape" data-name="Combined Shape" d="M18.751,25H1.25a1.25,1.25,0,1,1,0-2.5H2.5V3.75A3.754,3.754,0,0,1,6.251,0h7.5A3.754,3.754,0,0,1,17.5,3.75V12.5a3.755,3.755,0,0,1,3.75,3.75v1.875a.625.625,0,1,0,1.25,0V10.518L21.983,10a2.483,2.483,0,0,1-.732-1.767V6.768l-.884-.884a1.25,1.25,0,0,1,1.769-1.767l2.133,2.134A2.513,2.513,0,0,1,25,8.018V18.125a3.125,3.125,0,1,1-6.249,0V16.25A1.251,1.251,0,0,0,17.5,15v7.5h1.25a1.25,1.25,0,1,1,0,2.5ZM5,11.25V22.5H15V11.25ZM6.251,2.5A1.252,1.252,0,0,0,5,3.75v5H15v-5A1.251,1.251,0,0,0,13.75,2.5Z" fill="#838f98"/>
</svg>
