<svg xmlns="http://www.w3.org/2000/svg" width="29.113" height="26.201" viewBox="0 0 29.113 26.201">
  <path id="Vector_605_Stroke_" data-name="Vector 605 (Stroke)" d="M9.649,3.8,7.786,11.249a4.367,4.367,0,0,1-4.237,3.308H1.456a1.456,1.456,0,1,1,0-2.911H3.549a1.456,1.456,0,0,0,1.412-1.1L6.825,3.091a4.081,4.081,0,0,1,8.008.484l2.336,18.691a1.169,1.169,0,0,0,2.295.139l1.863-7.452a4.367,4.367,0,0,1,4.237-3.308h2.094a1.456,1.456,0,1,1,0,2.911H25.563a1.456,1.456,0,0,0-1.412,1.1L22.288,23.11a4.081,4.081,0,0,1-8.008-.484L11.944,3.936A1.169,1.169,0,0,0,9.649,3.8Z" fill="#838f98"/>
</svg>
