<svg xmlns="http://www.w3.org/2000/svg" width="12" height="12" viewBox="0 0 12 12">
  <g id="Group" transform="translate(-0.485 -0.345)">
    <path id="Path_51_Stroke_" data-name="Path 51 (Stroke)" d="M1.189-3.433V-6.406A.594.594,0,0,0,.594-7,.594.594,0,0,0,0-6.406v2.972a.594.594,0,0,0,.594.594A.594.594,0,0,0,1.189-3.433Z" transform="translate(5.628 10.203)" fill="#838f98"/>
    <path id="Ellipse_135" data-name="Ellipse 135" d="M.594,1.189A.594.594,0,1,1,1.189.594.594.594,0,0,1,.594,1.189Z" transform="translate(5.628 7.959)" fill="#838f98"/>
    <path id="Combined_Shape" data-name="Combined Shape" d="M6,12a6,6,0,1,1,6-6A6.007,6.007,0,0,1,6,12ZM6,1.2A4.8,4.8,0,1,0,10.8,6,4.806,4.806,0,0,0,6,1.2Z" transform="translate(0.485 0.345)" fill="#838f98"/>
  </g>
</svg>
