<svg xmlns="http://www.w3.org/2000/svg" width="20" height="20" viewBox="0 0 20 20">
  <g id="Group" transform="translate(0)">
    <path id="Path_51_Stroke_" data-name="Path 51 (Stroke)" d="M2-1V-6A1,1,0,0,0,1-7,1,1,0,0,0,0-6v5A1,1,0,0,0,1,0,1,1,0,0,0,2-1Z" transform="translate(9 12)" fill="red"/>
    <path id="Ellipse_135" data-name="Ellipse 135" d="M1,2A1,1,0,1,1,2,1,1,1,0,0,1,1,2Z" transform="translate(9 13)" fill="red"/>
    <path id="Combined_Shape" data-name="Combined Shape" d="M10,20A10,10,0,1,1,20,10,10.011,10.011,0,0,1,10,20ZM10,2a8,8,0,1,0,8,8A8.009,8.009,0,0,0,10,2Z" transform="translate(0 0.001)" fill="red"/>
  </g>
</svg>
