<svg xmlns="http://www.w3.org/2000/svg" width="20.874" height="26.057" viewBox="0 0 20.874 26.057">
  <path id="Combined_Shape" data-name="Combined Shape" d="M10.437,26.057A10.446,10.446,0,0,1,0,15.627a10.319,10.319,0,0,1,2.289-6.52L2.3,9.1C2.333,9.049,5.956,4.206,8.721.823a2.2,2.2,0,0,1,3.432,0C13.784,2.815,15.7,5.3,17.022,7.034c.534.7,1.082,1.425,1.543,2.04l.02.026,0,.006,0,.011a10.429,10.429,0,0,1-8.153,16.941Zm0-23.23c-1.361,1.68-2.88,3.644-3.915,5-.612.8-1.145,1.5-1.541,2.026L4.8,10.09l-.421.561-.055.07-.008.011a7.745,7.745,0,0,0-1.719,4.9,7.839,7.839,0,0,0,15.678,0,7.745,7.745,0,0,0-1.719-4.9c-.053-.067-.1-.131-.144-.2l-.062-.083c-.443-.589-1.147-1.522-1.989-2.62C12.846,5.851,11.525,4.167,10.437,2.828Z" fill="#838f98"/>
</svg>
