<svg xmlns="http://www.w3.org/2000/svg" width="50" height="50" viewBox="0 0 50 50">
  <g id="Group_341" data-name="Group 341" transform="translate(-9549.314 20114.686)">
    <circle id="Ellipse_59" data-name="Ellipse 59" cx="25" cy="25" r="25" transform="translate(9549.314 -20114.686)" fill="#159296"/>
    <path id="Ellipse_57" data-name="Ellipse 57" d="M15.225,2.537A12.687,12.687,0,1,0,27.912,15.225,12.7,12.7,0,0,0,15.225,2.537m0-2.537A15.225,15.225,0,1,1,0,15.225,15.225,15.225,0,0,1,15.225,0Z" transform="translate(9558.833 -20104.805)" fill="#fff"/>
    <path id="Ellipse_58" data-name="Ellipse 58" d="M22.475,2.537C9.321,2.537,2.537,6.476,2.537,8.156s6.783,5.619,19.937,5.619S42.412,9.836,42.412,8.156,35.629,2.537,22.475,2.537m0-2.537C34.887,0,44.949,3.652,44.949,8.156s-10.062,8.156-22.475,8.156S0,12.661,0,8.156,10.062,0,22.475,0Z" transform="translate(9552.655 -20079.197) rotate(-45)" fill="#fff"/>
  </g>
</svg>
