<svg xmlns="http://www.w3.org/2000/svg" width="22.627" height="22.627" viewBox="0 0 22.627 22.627">
  <path id="Combined_Shape" data-name="Combined Shape" d="M6,20a1,1,0,0,1-1-1V14H1a1,1,0,0,1-1-1v-.324a4.988,4.988,0,0,1,2.227-4.16L2.555,8.3A1,1,0,0,0,3,7.465V5.851a1.006,1.006,0,0,0-.219-.625L1.22,3.274A1,1,0,0,1,1,2.65V1A1,1,0,0,1,2,0h8a1,1,0,0,1,1,1V2.65a1.006,1.006,0,0,1-.219.625L9.219,5.226A1.006,1.006,0,0,0,9,5.851V7.465a1,1,0,0,0,.446.832l.328.219A4.988,4.988,0,0,1,12,12.676V13a1,1,0,0,1-1,1H7v5A1,1,0,0,1,6,20ZM3,2v.3L4.343,3.977A3.01,3.01,0,0,1,5,5.851V7.465a2.993,2.993,0,0,1-1.336,2.5l-.328.219A2.985,2.985,0,0,0,2.077,12H9.923a2.988,2.988,0,0,0-1.258-1.82l-.328-.219A2.994,2.994,0,0,1,7,7.465V5.851a3.009,3.009,0,0,1,.657-1.874L9,2.3V2Z" transform="translate(14.142) rotate(45)" fill="#c1c1c1"/>
</svg>
