<svg xmlns="http://www.w3.org/2000/svg" width="24" height="24" viewBox="0 0 24 24">
  <g id="Group" transform="translate(0.094 0.094)">
    <path id="Combined_Shape" data-name="Combined Shape" d="M9.334,11A5.364,5.364,0,0,1,4.168,6.875H1.333a1.376,1.376,0,0,1,0-2.751H4.168A5.364,5.364,0,0,1,9.334,0,5.361,5.361,0,0,1,14.5,4.125h8.168a1.376,1.376,0,0,1,0,2.751H14.5A5.362,5.362,0,0,1,9.334,11Zm0-8.25A2.712,2.712,0,0,0,6.667,5.5,2.668,2.668,0,1,0,12,5.5,2.712,2.712,0,0,0,9.334,2.75Z" transform="translate(-0.094 12.906)"/>
    <path id="Combined_Shape-2" data-name="Combined Shape" d="M14.666,11A5.361,5.361,0,0,1,9.5,6.875H1.333a1.376,1.376,0,0,1,0-2.751H9.5a5.3,5.3,0,0,1,10.331,0h2.834a1.376,1.376,0,0,1,0,2.751H19.832A5.365,5.365,0,0,1,14.666,11Zm0-8.25A2.712,2.712,0,0,0,12,5.5a2.668,2.668,0,1,0,5.333,0A2.712,2.712,0,0,0,14.666,2.75Z" transform="translate(-0.094 -0.094)"/>
  </g>
</svg>
