<svg id="Group" xmlns="http://www.w3.org/2000/svg" width="28.286" height="22" viewBox="0 0 28.286 22">
  <path id="Vector_605_Stroke_" data-name="Vector 605 (Stroke)" d="M1.571,0H26.715a1.571,1.571,0,0,1,0,3.143H1.571A1.571,1.571,0,0,1,1.571,0Z" fill="#838f98"/>
  <path id="Vector_606_Stroke_" data-name="Vector 606 (Stroke)" d="M1.571,0H26.715a1.571,1.571,0,0,1,0,3.143H1.571A1.571,1.571,0,0,1,1.571,0Z" transform="translate(0 6.286)" fill="#838f98"/>
  <path id="Vector_607_Stroke_" data-name="Vector 607 (Stroke)" d="M1.571,0H26.715a1.571,1.571,0,0,1,0,3.143H1.571A1.571,1.571,0,0,1,1.571,0Z" transform="translate(0 12.572)" fill="#838f98"/>
  <path id="Vector_608_Stroke_" data-name="Vector 608 (Stroke)" d="M1.571,0H26.715a1.571,1.571,0,0,1,0,3.143H1.571A1.571,1.571,0,0,1,1.571,0Z" transform="translate(0 18.857)" fill="#838f98"/>
</svg>
