<svg xmlns="http://www.w3.org/2000/svg" width="18.559" height="17.83" viewBox="0 0 18.559 17.83">
  <g id="Group_281" data-name="Group 281" transform="translate(-1490.58 -1415.043)">
    <g id="Path_291" data-name="Path 291" transform="matrix(0.545, 0.839, -0.839, 0.545, 1502.356, 1416.427)" fill="none" strokeLinejoin="round" strokeLinejoin="round">
      <path d="M4.957,0,9.914,12.392,4.957,9.3,0,12.392Z" stroke="none"/>
      <path d="M 4.956890106201172 1.9073486328125e-06 L 0 12.39222240447998 L 4.956890106201172 9.303442001342773 L 9.913780212402344 12.39222240447998 L 4.956890106201172 1.9073486328125e-06 M 4.956890106201172 -0.9999980926513672 C 5.365789890289307 -0.9999980926513672 5.733500003814697 -0.7510480880737305 5.885370254516602 -0.3713874816894531 L 10.84226036071777 12.02083206176758 C 11.00283050537109 12.42226219177246 10.88722991943359 12.88143253326416 10.55572032928467 13.1589822769165 C 10.22420978546143 13.43652248382568 9.751870155334473 13.46959209442139 9.384920120239258 13.24093246459961 L 4.956890106201172 10.48169994354248 L 0.5288600921630859 13.24093246459961 C 0.1619100570678711 13.46959209442139 -0.310429573059082 13.43652248382568 -0.6419401168823242 13.1589822769165 C -0.97344970703125 12.88143253326416 -1.08905029296875 12.42226219177246 -0.9284801483154297 12.02083206176758 L 4.028409957885742 -0.3713874816894531 C 4.180280208587646 -0.7510480880737305 4.547990322113037 -0.9999980926513672 4.956890106201172 -0.9999980926513672 Z" stroke="none" fill="#fff"/>
    </g>
    <path id="Path_292" data-name="Path 292" d="M-2234.828-2143.077l8.623-5.393" transform="translate(3731.676 3568.912)" fill="none" stroke="#fff" strokeWidth="1"/>
  </g>
</svg>
