<svg id="Group" xmlns="http://www.w3.org/2000/svg" width="10.194" height="9.322" viewBox="0 0 10.194 9.322">
  <path id="Combined_Shape" data-name="Combined Shape" d="M8.633,9.322H1.561A1.559,1.559,0,0,1,.207,6.992L3.743.787a1.559,1.559,0,0,1,2.709,0l3.536,6.2a1.558,1.558,0,0,1-1.354,2.33ZM5.1,1.039a.514.514,0,0,0-.451.262L1.11,7.506a.52.52,0,0,0,.451.777H8.633a.52.52,0,0,0,.452-.777L5.549,1.3A.515.515,0,0,0,5.1,1.039Z" transform="translate(0 0)" fill="#ff000f"/>
  <path id="Ellipse_135" data-name="Ellipse 135" d="M.52,1.039a.52.52,0,1,1,.52-.52A.52.52,0,0,1,.52,1.039Z" transform="translate(4.577 6.724)" fill="#ff000f"/>
  <path id="Path_51_Stroke_" data-name="Path 51 (Stroke)" d="M1.039-3.882v-2.6A.52.52,0,0,0,.52-7,.52.52,0,0,0,0-6.48v2.6a.52.52,0,0,0,.52.52A.52.52,0,0,0,1.039-3.882Z" transform="translate(4.577 9.567)" fill="#ff000f"/>
</svg>
