<svg width="250" height="86" viewBox="0 0 250 86" fill="none" xmlns="http://www.w3.org/2000/svg">
<g clip-path="url(#clip0_183_10)">
<g clip-path="url(#clip1_183_10)">
<path fillRule="evenodd" clipRule="evenodd" d="M9.28569 31.0172C11.2283 28.4393 13.7733 26.3799 16.6966 25.0203C19.6199 23.6607 22.8317 23.0425 26.0493 23.2204C29.2668 23.3982 32.3914 24.3665 35.1479 26.0401C37.9044 27.7136 40.2083 30.041 41.8565 32.8174L43.2802 32.0243L45.6531 30.6286C43.5243 27.0378 40.501 24.0636 36.8798 21.9979C33.2586 19.9323 29.1639 18.8462 24.9977 18.8462C20.8314 18.8462 16.7368 19.9323 13.1156 21.9979C9.49438 24.0636 6.47105 27.0378 4.34232 30.6286L3.16382 32.4843L5.04625 33.6025L12.3308 37.9404C11.1393 40.9449 11.0564 44.2771 12.0969 47.3375C13.1374 50.3979 15.2331 52.9855 18.0069 54.6346C20.7807 56.2838 24.0504 56.8863 27.2278 56.3337C30.4051 55.7811 33.2814 54.1096 35.3392 51.6202L40.6464 54.7923C38.7033 57.3724 36.1567 59.4334 33.2312 60.7933C30.3058 62.1532 27.0915 62.7703 23.872 62.59C20.6524 62.4098 17.5266 61.4377 14.7704 59.7597C12.0141 58.0817 9.71219 55.7493 8.06764 52.9683L4.31068 55.1967C6.43941 58.7876 9.46274 61.7618 13.0839 63.8274C16.7052 65.893 20.7998 66.9791 24.966 66.9791C29.1323 66.9791 33.2269 65.893 36.8482 63.8274C40.4694 61.7618 43.4927 58.7876 45.6214 55.1967L46.7446 53.3093L44.8621 52.1912L38.8826 48.6304L33.7257 45.6486C33.0979 47.6523 31.8052 49.3803 30.0624 50.5455C28.3196 51.7106 26.2316 52.2427 24.1455 52.0534C22.0593 51.864 20.1005 50.9647 18.5947 49.5047C17.0889 48.0448 16.1267 46.1121 15.8679 44.028C15.6092 41.9438 16.0695 39.8336 17.1724 38.0481C18.2753 36.2625 19.9544 34.9091 21.9306 34.2128C23.9068 33.5165 26.0612 33.5191 28.0357 34.2203C30.0102 34.9215 31.6859 36.279 32.7845 38.0672L36.5731 35.8785C35.4601 34.0276 33.9225 32.4699 32.0881 31.3349C30.2537 30.1999 28.1756 29.5203 26.0266 29.3528C23.8775 29.1853 21.7196 29.5346 19.7323 30.3716C17.745 31.2087 15.9857 32.5094 14.6008 34.1655L9.28569 31.0172Z" fill="#FF7152"/>
</g>
<path d="M66.5034 52.7725C62.8229 52.7725 60.0186 51.8336 58.0907 49.9557C57.1006 48.9161 56.3362 47.6846 55.8451 46.3379C55.354 44.9913 55.1468 43.5583 55.2364 42.1284C55.1482 40.6666 55.3529 39.202 55.8386 37.8197C56.3244 36.4374 57.0814 35.1651 58.0657 34.0769C59.9435 32.1408 62.7561 31.1686 66.5034 31.1603C67.658 31.1487 68.811 31.2488 69.9461 31.4595C70.9407 31.6434 71.92 31.9017 72.8756 32.2322V36.8313C70.9792 36.0478 68.9447 35.6495 66.8915 35.6597C66.0319 35.5844 65.166 35.6836 64.3461 35.9514C63.5262 36.2192 62.7695 36.65 62.1218 37.2177C60.9898 38.5941 60.4418 40.356 60.5945 42.1284C60.5213 42.9775 60.626 43.8324 60.9018 44.639C61.1776 45.4457 61.6186 46.1866 62.1969 46.8148C63.5357 47.9032 65.243 48.4385 66.9666 48.3105C67.987 48.3131 69.0054 48.2213 70.0087 48.0363C71.0082 47.8506 71.9857 47.5624 72.9256 47.1763V51.8003C71.9719 52.1072 70.997 52.3446 70.0087 52.5108C68.8499 52.6968 67.6772 52.7844 66.5034 52.7725Z" fill="white"/>
<path d="M85.1201 52.7725C81.6899 52.7725 79.086 51.9042 77.3083 50.1676C75.5306 48.431 74.6334 45.7305 74.6167 42.0662C74.6167 38.1775 75.5181 35.398 77.3083 33.703C79.0985 32.0079 81.6899 31.2102 85.1201 31.2102C88.5503 31.2102 91.1417 32.0577 92.9319 33.703C94.7221 35.3482 95.6109 38.1775 95.6109 42.0662C95.6109 45.7305 94.7096 48.4351 92.9319 50.1676C91.1542 51.9001 88.5377 52.7725 85.1201 52.7725ZM85.1201 48.3105C85.8462 48.3823 86.5792 48.2833 87.2598 48.0213C87.9404 47.7594 88.5497 47.3418 89.0385 46.8024C89.9779 45.4083 90.4189 43.74 90.2904 42.0662C90.4515 40.3112 90.0102 38.5537 89.0385 37.0806C88.5444 36.5656 87.94 36.1681 87.2702 35.9178C86.6005 35.6675 85.8826 35.5707 85.1702 35.6348C84.4519 35.5686 83.7278 35.6642 83.0517 35.9145C82.3755 36.1648 81.7646 36.5633 81.2642 37.0806C80.286 38.5508 79.8441 40.3106 80.0124 42.0662C79.8839 43.74 80.3248 45.4083 81.2642 46.8024C81.7488 47.3299 82.3482 47.7401 83.0166 48.0015C83.6849 48.2629 84.4044 48.3686 85.1201 48.3105Z" fill="white"/>
<path d="M98.2893 52.4484V31.4843H108.818C109.819 31.4018 110.827 31.5337 111.772 31.8713C112.718 32.2088 113.58 32.7441 114.301 33.4412C115.539 34.898 116.17 36.7707 116.066 38.6759C116.105 40.0033 115.729 41.3099 114.99 42.4151C114.267 43.4806 113.243 44.309 112.048 44.7956C112.338 45.0172 112.588 45.2871 112.786 45.5933C113.025 45.9894 113.226 46.4067 113.387 46.8397L115.891 52.4983H110.383L108.029 47.1638C107.876 46.7684 107.616 46.4232 107.278 46.1667C106.897 45.9505 106.464 45.8427 106.026 45.8551H103.547V52.4983L98.2893 52.4484ZM103.547 41.767H107.441C108.309 41.8216 109.167 41.5504 109.844 41.0067C110.15 40.7039 110.385 40.3386 110.534 39.9361C110.683 39.5336 110.743 39.1036 110.708 38.6759C110.708 36.582 109.694 35.5226 107.666 35.5226H103.547V41.767Z" fill="white"/>
<path d="M118.746 52.4484V31.4844H134.282V35.5226H124.017V39.9224H133.068V44.0479H124.017V48.4102H134.282V52.4484H118.746Z" fill="white"/>
</g>
<path d="M171.984 51.352C175.372 51.352 177.594 49.526 177.594 47.062C177.594 44.444 176.098 43.432 173.106 42.2C171.082 41.364 170.092 40.946 170.092 39.626C170.092 38.526 171.17 37.932 172.798 37.91C174.404 37.91 175.856 38.526 176.736 39.34V36.766C175.658 36.04 174.404 35.6 173.018 35.622C169.872 35.622 167.628 37.272 167.628 39.626C167.628 42.244 169.08 43.278 172.028 44.51C174.052 45.346 175.13 45.896 175.13 47.04C175.13 48.25 174.272 49.086 171.984 49.086C170.202 49.086 168.332 48.404 166.99 47.348V49.812C167.848 50.56 169.52 51.352 171.984 51.352ZM181.982 51H184.358V41.254H188.252V39.318H184.358V35.688L177.604 41.254H181.982V51ZM194.992 51.33C196.84 51.33 198.05 50.604 198.798 49.834L198.776 51H201.174V39.626H198.82V40.726C198.028 39.934 196.642 39.296 194.992 39.296C191.516 39.296 189.052 42.002 189.052 45.324C189.052 48.646 191.516 51.33 194.992 51.33ZM195.168 49.218C193.034 49.218 191.428 47.458 191.428 45.302C191.428 43.146 193.034 41.408 195.168 41.408C197.28 41.408 198.952 42.838 198.952 45.302C198.952 47.788 197.28 49.218 195.168 49.218ZM212.787 51H215.845L209.905 43.872L214.965 39.626H211.885L207.089 43.63V35.666L204.713 36.062V51H207.089V46.226L208.145 45.324L212.787 51ZM218.731 37.998C219.501 37.998 220.095 37.404 220.095 36.656C220.095 35.886 219.501 35.292 218.731 35.292C217.983 35.292 217.389 35.886 217.389 36.656C217.389 37.404 217.983 37.998 218.731 37.998ZM217.653 51H220.029V39.604H217.653V51ZM229.669 39.274C226.897 39.274 226.127 41.034 226.127 41.034V39.626H223.751V51H226.127V44.598C226.127 42.464 227.667 41.386 229.317 41.386C230.879 41.386 231.869 42.42 231.869 44.246V51H234.245V44.004C234.245 40.88 232.221 39.274 229.669 39.274ZM242.271 55.95C246.979 55.95 248.761 53.134 248.761 49.812L248.805 39.626H246.429V40.726C245.637 39.934 244.251 39.296 242.601 39.296C239.125 39.296 236.661 42.002 236.661 45.324C236.661 48.646 239.125 51.33 242.601 51.33C244.427 51.33 245.637 50.626 246.385 49.856V50.12C246.385 52.782 244.757 53.838 242.183 53.838C239.389 53.838 237.717 52.65 237.717 52.65V54.784C237.717 54.784 238.949 55.95 242.271 55.95ZM242.777 49.218C240.643 49.218 239.037 47.458 239.037 45.302C239.037 43.146 240.643 41.408 242.777 41.408C244.889 41.408 246.561 42.838 246.561 45.302C246.561 47.788 244.889 49.218 242.777 49.218Z" fill="white"/>
<line opacity="0.1" x1="151" y1="19" x2="151" y2="67" stroke="white" stroke-width="2"/>
<defs>
<clipPath id="clip0_183_10">
<rect width="134" height="86" fill="white"/>
</clipPath>
<clipPath id="clip1_183_10">
<rect width="49.8291" height="48.375" fill="white" transform="translate(0 18.8125)"/>
</clipPath>
</defs>
</svg>
