<svg width="60" height="60" viewBox="0 0 60 60" fill="none" xmlns="http://www.w3.org/2000/svg">
<rect width="60" height="60" rx="20" fill="url(#paint0_linear_5728_18)"/>
<mask id="mask0_5728_18" style="mask-type:alpha" maskUnits="userSpaceOnUse" x="0" y="0" width="60" height="60">
<rect width="60" height="60" rx="20" fill="#162029"/>
</mask>
<g mask="url(#mask0_5728_18)">
<g filter="url(#filter0_f_5728_18)">
<rect width="60" height="60" rx="20" fill="url(#paint1_linear_5728_18)"/>
</g>
</g>
<path fillRule="evenodd" clipRule="evenodd" d="M36.6663 42.9674C39.1032 42.9676 41.4936 42.3174 43.5776 41.0874C45.6617 39.8574 47.3597 38.0947 48.4872 35.9909C49.6146 33.887 50.1285 31.5224 49.9727 29.1541C49.817 26.7858 48.9978 24.5044 47.604 22.5577C46.2102 20.6111 44.2952 19.0736 42.0671 18.1125C39.839 17.1514 37.383 16.8033 34.966 17.1062C32.549 17.409 30.2635 18.3511 28.3578 19.8302C26.4521 21.3093 24.9991 23.2687 24.1567 25.4955C24.9288 25.717 25.631 26.125 26.1977 26.6817C28.0412 27.6755 30.8724 28.4129 33.6047 26.874C34.1379 26.2899 34.8128 25.8452 35.5678 25.5803C36.3228 25.3154 37.1339 25.2388 37.9271 25.3575C38.7203 25.4762 39.4703 25.7865 40.1088 26.2599C40.7473 26.7334 41.2538 27.355 41.5823 28.0681C41.9107 28.7812 42.0506 29.563 41.9891 30.3422C41.9277 31.1214 41.6668 31.8732 41.2304 32.5291C40.794 33.1849 40.1959 33.7239 39.4907 34.0969C38.7854 34.4699 37.9955 34.6649 37.193 34.6643C36.1508 34.6599 35.1368 34.3344 34.296 33.7346C32.4196 32.8369 29.0618 32.0034 25.7698 33.6705C25.2908 34.0373 24.7428 34.3096 24.1567 34.4719C25.0994 36.9639 26.8041 39.1145 29.0409 40.6335C31.2778 42.1526 33.9392 42.9672 36.6663 42.9674Z" fill="#FF6969"/>
<path fillRule="evenodd" clipRule="evenodd" d="M35.8433 25.5278C34.7613 22.6675 32.6804 20.2692 29.9652 18.7528C27.2499 17.2365 24.0733 16.6988 20.9919 17.2339C17.9104 17.7691 15.1205 19.343 13.1109 21.6799C11.1013 24.0168 10 26.9678 10 30.016C10 33.0641 11.1013 36.0151 13.1109 38.352C15.1205 40.689 17.9104 42.2629 20.9919 42.798C24.0733 43.3332 27.2499 42.7955 29.9652 41.2791C32.6804 39.7628 34.7613 37.3644 35.8433 34.5042C35.2821 34.3455 34.7571 34.0844 34.2961 33.7348C32.4196 32.8371 29.0618 32.0036 25.7698 33.6706C24.9285 34.3231 23.8824 34.674 22.807 34.6645C22.1758 34.6645 21.5508 34.5434 20.9677 34.3082C20.3845 34.073 19.8547 33.7282 19.4084 33.2936C18.9621 32.8589 18.6081 32.3429 18.3665 31.7751C18.125 31.2072 18.0007 30.5986 18.0007 29.9839C18.0007 29.3693 18.125 28.7606 18.3665 28.1927C18.6081 27.6249 18.9621 27.1089 19.4084 26.6743C19.8547 26.2396 20.3845 25.8949 20.9677 25.6596C21.5508 25.4244 22.1758 25.3034 22.807 25.3034C23.4383 25.2995 24.0639 25.4195 24.6465 25.6564C25.2291 25.8932 25.7567 26.242 26.1977 26.6819C28.0413 27.6757 30.8724 28.413 33.6047 26.8742C34.2091 26.2329 34.9839 25.7669 35.8433 25.5278Z" fill="#18FFFF"/>
<defs>
<filter id="filter0_f_5728_18" x="-43" y="-43" width="146" height="146" filterUnits="userSpaceOnUse" colorInterpolationFilters="sRGB">
<feFlood floodOpacity="0" result="BackgroundImageFix"/>
<feBlend mode="normal" in="SourceGraphic" in2="BackgroundImageFix" result="shape"/>
<feGaussianBlur stdDeviation="21.5" result="effect1_foregroundBlur_5728_18"/>
</filter>
<linearGradient id="paint0_linear_5728_18" x1="44.5" y1="1.25393e-06" x2="13" y2="60" gradientUnits="userSpaceOnUse">
<stop stopColor="#211A73"/>
<stop offset="1" stopColor="#161239"/>
</linearGradient>
<linearGradient id="paint1_linear_5728_18" x1="15.5" y1="60" x2="44" y2="1.32609e-06" gradientUnits="userSpaceOnUse">
<stop stopColor="#070A0D"/>
<stop offset="1" stopColor="#243443"/>
</linearGradient>
</defs>
</svg>
