 <svg xmlns="http://www.w3.org/2000/svg" width="490" height="60" viewBox="0 0 490 60" fill="none">
    <path d="M383.16 40.48C379.8 40.48 377.52 39.4 376.35 38.38V35.02C378.18 36.46 380.73 37.39 383.16 37.39C386.28 37.39 387.45 36.25 387.45 34.6C387.45 33.04 385.98 32.29 383.22 31.15C379.2 29.47 377.22 28.06 377.22 24.49C377.22 21.28 380.28 19.03 384.57 19.03C386.46 19 388.17 19.6 389.64 20.59V24.1C388.44 22.99 386.46 22.15 384.27 22.15C382.05 22.18 380.58 22.99 380.58 24.49C380.58 26.29 381.93 26.86 384.69 28C388.77 29.68 390.81 31.06 390.81 34.63C390.81 37.99 387.78 40.48 383.16 40.48ZM396.794 40V26.71H390.824L400.034 19.12V24.07H405.344V26.71H400.034V40H396.794ZM414.534 40.45C409.794 40.45 406.434 36.79 406.434 32.26C406.434 27.73 409.794 24.04 414.534 24.04C416.784 24.04 418.674 24.91 419.754 25.99V24.49H422.964V40H419.694L419.724 38.41C418.704 39.46 417.054 40.45 414.534 40.45ZM414.774 37.57C417.654 37.57 419.934 35.62 419.934 32.23C419.934 28.87 417.654 26.92 414.774 26.92C411.864 26.92 409.674 29.29 409.674 32.23C409.674 35.17 411.864 37.57 414.774 37.57ZM438.801 40L432.471 32.26L431.031 33.49V40H427.791V19.63L431.031 19.09V29.95L437.571 24.49H441.771L434.871 30.28L442.971 40H438.801ZM446.906 22.27C445.886 22.27 445.076 21.46 445.076 20.44C445.076 19.39 445.886 18.58 446.906 18.58C447.956 18.58 448.766 19.39 448.766 20.44C448.766 21.46 447.956 22.27 446.906 22.27ZM445.436 40V24.46H448.676V40H445.436ZM461.822 24.01C465.302 24.01 468.062 26.2 468.062 30.46V40H464.822V30.79C464.822 28.3 463.472 26.89 461.342 26.89C459.092 26.89 456.992 28.36 456.992 31.27V40H453.752V24.49H456.992V26.41C456.992 26.41 458.042 24.01 461.822 24.01ZM479.006 46.75C474.476 46.75 472.796 45.16 472.796 45.16V42.25C472.796 42.25 475.076 43.87 478.886 43.87C482.396 43.87 484.616 42.43 484.616 38.8V38.44C483.596 39.49 481.946 40.45 479.456 40.45C474.716 40.45 471.356 36.79 471.356 32.26C471.356 27.73 474.716 24.04 479.456 24.04C481.706 24.04 483.596 24.91 484.676 25.99V24.49H487.916L487.856 38.38C487.856 42.91 485.426 46.75 479.006 46.75ZM479.696 37.57C482.576 37.57 484.856 35.62 484.856 32.23C484.856 28.87 482.576 26.92 479.696 26.92C476.786 26.92 474.596 29.29 474.596 32.23C474.596 35.17 476.786 37.57 479.696 37.57Z" fill="white" />
    <line opacity="0.1" x1="355" y1="-4.37114e-08" x2="355" y2="60" stroke="white" strokeWidth="2" />
    <path d="M134.573 42.9959C133.577 43.3913 132.514 43.7866 131.451 44.1161C130.387 44.471 129.3 44.7572 128.197 44.9727C127.038 45.2451 125.863 45.4432 124.678 45.5657C123.354 45.704 122.024 45.77 120.693 45.7633C117.9 45.7757 115.114 45.4661 112.392 44.8409C110.075 44.2739 107.874 43.3155 105.884 42.0075C104.13 40.7321 102.679 39.0901 101.634 37.1975C100.586 35.1122 100.062 32.8063 100.107 30.4766C100.062 28.1468 100.586 25.8409 101.634 23.7557C102.638 21.8347 104.096 20.1841 105.884 18.9456C107.848 17.5776 110.057 16.5937 112.392 16.0464C115.108 15.3889 117.898 15.0788 120.693 15.1239C122.024 15.1207 123.354 15.1867 124.678 15.3216C125.863 15.4441 127.038 15.6422 128.197 15.9146C129.326 16.1782 130.389 16.4417 131.451 16.7712C132.514 17.1007 133.51 17.496 134.573 17.8914V25.0076C133.776 24.5464 132.912 24.151 131.983 23.6898C131.025 23.2043 130.025 22.8073 128.994 22.5037C127.823 22.1262 126.624 21.8398 125.408 21.6472C123.958 21.4291 122.493 21.319 121.025 21.3177C118.916 21.2638 116.811 21.5305 114.783 22.1084C113.35 22.516 112.016 23.2112 110.865 24.151C109.943 24.9292 109.234 25.9267 108.806 27.0502C108.41 28.1497 108.207 29.3088 108.209 30.4766C108.198 31.2534 108.288 32.0283 108.474 32.7828C108.675 33.5388 108.965 34.2686 109.338 34.9572C109.773 35.6479 110.31 36.2698 110.931 36.8021C111.642 37.4127 112.45 37.9025 113.322 38.2517C114.394 38.6866 115.506 39.0176 116.642 39.2401C118.115 39.4632 119.602 39.5733 121.092 39.5696C122.559 39.5683 124.024 39.4582 125.475 39.2401C126.695 39.0713 127.896 38.7844 129.061 38.3835C130.076 38.061 131.073 37.6871 132.049 37.2634C132.979 36.8021 133.776 36.4068 134.639 35.9456V42.9959H134.573Z" fill="white" />
    <path d="M165.784 39.5036H149.382L146.593 45.0385H137.76L153.101 15.9146H161.933L177.273 45.0385H168.441L165.784 39.5036ZM152.237 33.7711H162.995L157.683 23.0308L152.237 33.7711Z" fill="white" />
    <path d="M196.93 22.1742V44.9726H189.027V22.1742H176.543V15.8486H209.415V22.1742H196.93Z" fill="white" />
    <path d="M214.727 44.9726V15.8486H244.478V22.0424H222.895V26.8525H243.349V33.0462H222.895V38.7129H244.81V44.9067H214.727V44.9726Z" fill="white" />
    <path d="M280.139 44.9726L260.349 24.9416V44.9726H252.447V15.8486H261.08L280.936 35.9455V15.8486H288.838V44.9726H280.139Z" fill="white" />
    <path d="M321.511 39.5036H305.109L302.319 45.0385H293.487L308.827 15.9146H317.66L333 45.0385H324.168L321.511 39.5036ZM308.031 33.7711H318.789L313.476 23.0308L308.031 33.7711Z" fill="white" />
    <path fillRule="evenodd" clipRule="evenodd" d="M53.1158 56.9343C57.9698 56.9347 62.7311 55.6063 66.8822 53.0934C71.0334 50.5806 74.4156 46.9794 76.6614 42.6813C78.9072 38.3831 79.9307 33.5524 79.6205 28.714C79.3104 23.8756 77.6785 19.2147 74.9023 15.2377C72.126 11.2606 68.3116 8.1197 63.8735 6.15613C59.4354 4.19257 54.5434 3.48149 49.7291 4.10017C44.9147 4.71885 40.3622 6.64362 36.5663 9.66533C32.7704 12.687 29.8762 16.6901 28.1982 21.2395C29.7363 21.692 31.1348 22.5256 32.2637 23.6628C35.9358 25.6932 41.575 27.1995 47.0175 24.0558C48.0796 22.8625 49.4238 21.9538 50.9277 21.4126C52.4316 20.8714 54.0472 20.715 55.6271 20.9575C57.2071 21.2001 58.7011 21.8339 59.9728 22.8012C61.2446 23.7685 62.2536 25.0385 62.9078 26.4952C63.562 27.952 63.8406 29.5492 63.7182 31.1412C63.5958 32.7331 63.0762 34.269 62.2069 35.6089C61.3376 36.9488 60.1463 38.05 58.7416 38.8119C57.3368 39.5739 55.7634 39.9724 54.1649 39.9711C52.089 39.9621 50.0691 39.2972 48.3946 38.0717C44.6569 36.2379 37.9685 34.535 31.4113 37.9407C30.4572 38.6902 29.3658 39.2464 28.1982 39.5781C30.076 44.6692 33.4715 49.0627 37.9271 52.1662C42.3826 55.2697 47.6838 56.9339 53.1158 56.9343Z" fill="#FF6969" />
    <path fillRule="evenodd" clipRule="evenodd" d="M51.4765 21.305C49.3213 15.4615 45.1765 10.5618 39.768 7.46386C34.3595 4.36597 28.0322 3.26748 21.8943 4.36079C15.7565 5.4541 10.1994 8.66951 6.1965 13.4438C2.19357 18.2181 0 24.2469 0 30.4743C0 36.7016 2.19357 42.7304 6.1965 47.5047C10.1994 52.279 15.7565 55.4944 21.8943 56.5878C28.0322 57.6811 34.3595 56.5826 39.768 53.4847C45.1765 50.3868 49.3213 45.487 51.4765 39.6436C50.3587 39.3195 49.3129 38.7861 48.3946 38.0717C44.657 36.2378 37.9686 34.535 31.4114 37.9407C29.7356 39.2736 27.6519 39.9905 25.5098 39.971C24.2526 39.971 23.0077 39.7237 21.8462 39.2432C20.6847 38.7626 19.6293 38.0583 18.7403 37.1703C17.8513 36.2824 17.1461 35.2282 16.665 34.0681C16.1839 32.9079 15.9363 31.6645 15.9363 30.4088C15.9363 29.153 16.1839 27.9096 16.665 26.7495C17.1461 25.5893 17.8513 24.5352 18.7403 23.6472C19.6293 22.7593 20.6847 22.0549 21.8462 21.5744C23.0077 21.0938 24.2526 20.8465 25.5098 20.8465C26.7673 20.8386 28.0135 21.0838 29.1739 21.5677C30.3344 22.0516 31.3852 22.7642 32.2638 23.6628C35.9359 25.6931 41.5751 27.1995 47.0176 24.0558C48.2215 22.7456 49.7647 21.7936 51.4765 21.305Z" fill="#18FFFF" />
</svg>
