<svg width="508" height="81" viewBox="0 0 508 81" fill="none" xmlns="http://www.w3.org/2000/svg">
<path d="M205.217 59.6447C203.698 60.2475 202.077 60.8504 200.457 61.3528C198.833 61.8941 197.176 62.3305 195.495 62.6591C193.727 63.0745 191.935 63.3766 190.128 63.5634C188.11 63.7743 186.081 63.875 184.052 63.8648C179.791 63.8836 175.543 63.4115 171.393 62.4581C167.86 61.5935 164.502 60.1319 161.469 58.1374C158.793 56.1924 156.581 53.6885 154.988 50.8023C153.389 47.6224 152.59 44.1061 152.658 40.5533C152.59 37.0006 153.389 33.4842 154.988 30.3043C156.518 27.3749 158.742 24.8578 161.469 22.9692C164.464 20.8831 167.832 19.3826 171.393 18.548C175.535 17.5453 179.789 17.0726 184.052 17.1413C186.081 17.1364 188.109 17.237 190.128 17.4428C191.935 17.6296 193.727 17.9317 195.495 18.3471C197.217 18.749 198.837 19.1509 200.457 19.6533C202.077 20.1557 203.597 20.7586 205.217 21.3615V32.2134C204.002 31.5101 202.685 30.9072 201.267 30.2038C199.807 29.4634 198.282 28.858 196.71 28.3952C194.924 27.8194 193.096 27.3827 191.242 27.0889C189.03 26.7564 186.795 26.5884 184.558 26.5865C181.341 26.5044 178.131 26.911 175.039 27.7923C172.853 28.4139 170.82 29.474 169.064 30.9072C167.657 32.0938 166.577 33.6149 165.925 35.3283C165.32 37.0049 165.011 38.7726 165.013 40.5533C164.998 41.7379 165.134 42.9196 165.418 44.0701C165.724 45.223 166.166 46.336 166.735 47.386C167.398 48.4393 168.218 49.3877 169.165 50.1995C170.249 51.1306 171.481 51.8775 172.811 52.41C174.446 53.0732 176.141 53.5779 177.874 53.9173C180.12 54.2574 182.388 54.4254 184.659 54.4197C186.897 54.4177 189.131 54.2498 191.343 53.9173C193.204 53.6598 195.036 53.2223 196.812 52.611C198.359 52.1192 199.88 51.549 201.369 50.9028C202.786 50.1995 204.002 49.5966 205.318 48.8932V59.6447H205.217Z" fill="#162029"/>
<path d="M252.814 54.3189H227.8L223.547 62.7593H210.078L233.471 18.3468H246.94L270.333 62.7593H256.864L252.814 54.3189ZM232.155 45.5771H248.56L240.459 29.1987L232.155 45.5771Z" fill="#162029"/>
<path d="M300.308 27.8925V62.6588H288.257V27.8925H269.219V18.2463H319.347V27.8925H300.308Z" fill="#162029"/>
<path d="M327.448 62.6588V18.2463H372.817V27.6915H339.904V35.0266H371.095V44.4718H339.904V53.1131H373.323V62.5583H327.448V62.6588Z" fill="#162029"/>
<path d="M427.198 62.6588L397.02 32.1127V62.6588H384.969V18.2463H398.134L428.413 48.893V18.2463H440.464V62.6588H427.198Z" fill="#162029"/>
<path d="M490.288 54.3189H465.275L461.022 62.7593H447.553L470.946 18.3468H484.415L507.808 62.7593H494.339L490.288 54.3189ZM469.731 45.5771H486.136L478.035 29.1987L469.731 45.5771Z" fill="#162029"/>
<path fill-rule="evenodd" clip-rule="evenodd" d="M80.9989 80.9C88.401 80.9006 95.6618 78.8749 101.992 75.0429C108.322 71.2109 113.48 65.7193 116.905 59.1649C120.33 52.6104 121.89 45.2438 121.417 37.8655C120.944 30.4872 118.456 23.3795 114.222 17.3148C109.989 11.2501 104.172 6.46029 97.4039 3.46595C90.636 0.471613 83.176 -0.612745 75.8344 0.330711C68.4927 1.27417 61.5504 4.20935 55.7618 8.8173C49.9732 13.4252 45.5597 19.5297 43.001 26.4673C45.3464 27.1573 47.4791 28.4285 49.2006 30.1627C54.8003 33.2589 63.3999 35.5561 71.6994 30.762C73.3189 28.9423 75.3689 27.5566 77.6622 26.7313C79.9555 25.906 82.4193 25.6674 84.8286 26.0373C87.2379 26.4072 89.5162 27.3737 91.4556 28.8488C93.3949 30.3239 94.9336 32.2605 95.9312 34.482C96.9289 36.7035 97.3538 39.1392 97.1671 41.5668C96.9804 43.9944 96.1881 46.3367 94.8625 48.3799C93.5368 50.4232 91.7201 52.1024 89.5779 53.2643C87.4358 54.4263 85.0365 55.034 82.5988 55.032C79.4331 55.0182 76.353 54.0044 73.7993 52.1356C68.0996 49.339 57.9002 46.7422 47.9007 51.9358C46.4457 53.0787 44.7814 53.9269 43.001 54.4327C45.8644 62.1964 51.0425 68.8963 57.8369 73.6289C64.6314 78.3616 72.7155 80.8993 80.9989 80.9Z" fill="#FF6969"/>
<path fill-rule="evenodd" clip-rule="evenodd" d="M78.499 26.5672C75.2125 17.6563 68.8918 10.1844 60.6441 5.46025C52.3965 0.736124 42.7477 -0.939023 33.3877 0.728219C24.0278 2.39546 15.5536 7.29879 9.44934 14.5794C3.34508 21.8599 0 31.0536 0 40.5499C0 50.0463 3.34508 59.2399 9.44934 66.5205C15.5536 73.8011 24.0278 78.7044 33.3877 80.3716C42.7477 82.0389 52.3965 80.3637 60.6441 75.6396C68.8918 70.9155 75.2125 63.4436 78.499 54.5326C76.7945 54.0384 75.1996 53.225 73.7993 52.1356C68.0996 49.3391 57.9002 46.7423 47.9007 51.9358C45.3452 53.9685 42.1678 55.0616 38.9012 55.032C36.984 55.032 35.0856 54.6548 33.3143 53.922C31.543 53.1892 29.9336 52.1151 28.578 50.7611C27.2223 49.407 26.1469 47.7995 25.4133 46.0303C24.6796 44.2612 24.302 42.365 24.302 40.4501C24.302 38.5351 24.6796 36.6389 25.4133 34.8698C26.1469 33.1006 27.2223 31.4931 28.578 30.139C29.9336 28.785 31.543 27.7109 33.3143 26.9781C35.0856 26.2453 36.984 25.8681 38.9012 25.8681C40.8188 25.856 42.7191 26.23 44.4887 26.9679C46.2583 27.7058 47.8609 28.7924 49.2006 30.1628C54.8003 33.2589 63.3998 35.5561 71.6994 30.762C73.5352 28.7641 75.8885 27.3124 78.499 26.5672Z" fill="#A6D0DD"/>
</svg>
