<svg width="203" height="135" viewBox="0 0 203 135" fill="none" xmlns="http://www.w3.org/2000/svg">
<path fillRule="evenodd" clipRule="evenodd" d="M134.998 134.833C147.335 134.834 159.436 131.458 169.986 125.071C180.537 118.685 189.133 109.532 194.841 98.6081C200.549 87.684 203.15 75.4063 202.362 63.1091C201.574 50.812 197.426 38.9659 190.37 28.858C183.314 18.7501 173.619 10.7671 162.34 5.77659C151.06 0.786022 138.626 -1.02124 126.39 0.551185C114.154 2.12361 102.584 7.01558 92.9361 14.6955C83.2884 22.3754 75.9326 32.5495 71.668 44.1122C75.5771 45.2621 79.1315 47.3808 82.0007 50.2712C91.3336 55.4315 105.666 59.2601 119.499 51.27C122.198 48.2371 125.614 45.9276 129.437 44.5521C133.259 43.1767 137.365 42.779 141.381 43.3955C145.396 44.012 149.193 45.6229 152.426 48.0814C155.658 50.5398 158.222 53.7675 159.885 57.4701C161.548 61.1726 162.256 65.232 161.945 69.278C161.634 73.324 160.313 77.2278 158.104 80.6332C155.894 84.0387 152.866 86.8373 149.296 88.7739C145.726 90.7105 141.727 91.7233 137.664 91.72C132.388 91.697 127.255 90.0073 122.999 86.8926C113.499 82.2317 96.5 77.9037 79.8342 86.5597C77.4093 88.4645 74.6353 89.8782 71.668 90.7212C76.4403 103.661 85.0705 114.827 96.3946 122.715C107.719 130.603 121.192 134.832 134.998 134.833Z" fill="#FF6969"/>
<path fillRule="evenodd" clipRule="evenodd" d="M130.832 44.2788C125.354 29.4272 114.82 16.974 101.074 9.1005C87.3274 1.22696 71.2461 -1.56496 55.6462 1.21378C40.0464 3.99252 25.9227 12.1647 15.7489 24.299C5.57514 36.4333 0 51.756 0 67.5833C0 83.4105 5.57514 98.7333 15.7489 110.868C25.9227 123.002 40.0464 131.174 55.6462 133.953C71.2461 136.732 87.3274 133.94 101.074 126.066C114.82 118.193 125.354 105.739 130.832 90.8878C127.991 90.0641 125.333 88.7084 122.999 86.8927C113.499 82.2318 96.5003 77.9039 79.8345 86.5598C75.5754 89.9475 70.2796 91.7695 64.8353 91.7201C61.64 91.7201 58.4759 91.0915 55.5238 89.8701C52.5717 88.6488 49.8894 86.8586 47.63 84.6018C45.3705 82.3451 43.5783 79.6659 42.3555 76.7173C41.1327 73.7687 40.5033 70.6084 40.5033 67.4168C40.5033 64.2253 41.1327 61.065 42.3555 58.1164C43.5783 55.1678 45.3705 52.4886 47.63 50.2318C49.8894 47.975 52.5717 46.1849 55.5238 44.9635C58.4759 43.7422 61.64 43.1135 64.8353 43.1135C68.0313 43.0933 71.1985 43.7168 74.1479 44.9466C77.0972 46.1764 79.7681 47.9874 82.001 50.2714C91.3339 55.4316 105.666 59.2602 119.499 51.2701C122.559 47.9403 126.481 45.5207 130.832 44.2788Z" fill="#A6D0DD"/>
</svg>
