<svg width="508" height="83" viewBox="0 0 508 83" fill="none" xmlns="http://www.w3.org/2000/svg">
<path d="M205.217 60.6447C203.698 61.2475 202.077 61.8504 200.457 62.3528C198.833 62.8941 197.176 63.3305 195.495 63.6591C193.727 64.0745 191.935 64.3766 190.128 64.5634C188.11 64.7743 186.081 64.875 184.052 64.8648C179.791 64.8836 175.543 64.4115 171.393 63.4581C167.86 62.5935 164.502 61.1319 161.469 59.1374C158.793 57.1924 156.581 54.6885 154.988 51.8023C153.389 48.6224 152.59 45.1061 152.658 41.5533C152.59 38.0006 153.389 34.4842 154.988 31.3043C156.518 28.3749 158.742 25.8578 161.469 23.9692C164.464 21.8831 167.832 20.3826 171.393 19.548C175.535 18.5453 179.789 18.0726 184.052 18.1413C186.081 18.1364 188.109 18.237 190.128 18.4428C191.935 18.6296 193.727 18.9317 195.495 19.3471C197.217 19.749 198.837 20.1509 200.457 20.6533C202.077 21.1557 203.597 21.7586 205.217 22.3615V33.2134C204.002 32.5101 202.685 31.9072 201.267 31.2038C199.807 30.4634 198.282 29.858 196.71 29.3952C194.924 28.8194 193.096 28.3827 191.242 28.0889C189.03 27.7564 186.795 27.5884 184.558 27.5865C181.341 27.5044 178.131 27.911 175.039 28.7923C172.853 29.4139 170.82 30.474 169.064 31.9072C167.657 33.0938 166.577 34.6149 165.925 36.3283C165.32 38.0049 165.011 39.7726 165.013 41.5533C164.998 42.7379 165.134 43.9196 165.418 45.0701C165.724 46.223 166.166 47.336 166.735 48.386C167.398 49.4393 168.218 50.3877 169.165 51.1995C170.249 52.1306 171.481 52.8775 172.811 53.41C174.446 54.0732 176.141 54.5779 177.874 54.9173C180.12 55.2574 182.388 55.4254 184.659 55.4197C186.897 55.4177 189.131 55.2498 191.343 54.9173C193.204 54.6598 195.036 54.2223 196.812 53.611C198.359 53.1192 199.88 52.549 201.369 51.9028C202.786 51.1995 204.002 50.5966 205.318 49.8932V60.6447H205.217Z" fill="#162029"/>
<path d="M252.814 55.3189H227.8L223.547 63.7593H210.078L233.471 19.3468H246.94L270.333 63.7593H256.864L252.814 55.3189ZM232.155 46.5771H248.56L240.459 30.1987L232.155 46.5771Z" fill="#162029"/>
<path d="M300.308 28.8925V63.6588H288.257V28.8925H269.219V19.2463H319.347V28.8925H300.308Z" fill="#162029"/>
<path d="M327.448 63.6588V19.2463H372.817V28.6915H339.904V36.0266H371.095V45.4718H339.904V54.1131H373.323V63.5583H327.448V63.6588Z" fill="#162029"/>
<path d="M427.198 63.6588L397.02 33.1127V63.6588H384.969V19.2463H398.134L428.413 49.893V19.2463H440.464V63.6588H427.198Z" fill="#162029"/>
<path d="M490.288 55.3189H465.275L461.022 63.7593H447.553L470.946 19.3468H484.415L507.808 63.7593H494.339L490.288 55.3189ZM469.731 46.5771H486.136L478.035 30.1987L469.731 46.5771Z" fill="#162029"/>
<path fillRule="evenodd" clipRule="evenodd" d="M81.3004 82.9C88.8097 82.9559 96.1901 80.9483 102.636 77.0963C109.083 73.2443 114.347 67.6959 117.856 61.0563C121.364 54.4168 122.982 46.9412 122.532 39.4451C122.082 31.9491 119.582 24.7206 115.305 18.5483C111.028 12.3759 105.137 7.4969 98.2765 4.44346C91.4158 1.39002 83.8482 0.279478 76.3995 1.233C68.9508 2.18653 61.907 5.16749 56.0366 9.85065C50.1663 14.5338 45.6949 20.7393 43.1104 27.79C45.47 28.4946 47.6132 29.7846 49.3404 31.54C55.0004 34.67 63.6104 37 72.0004 32.14C73.3741 30.5773 75.0666 29.327 76.964 28.4732C78.8614 27.6194 80.9197 27.1818 83.0004 27.19C86.9149 27.19 90.6692 28.7451 93.4372 31.5131C96.2053 34.2811 97.7604 38.0354 97.7604 41.95C97.7604 45.8646 96.2053 49.6189 93.4372 52.3869C90.6692 55.1549 86.9149 56.71 83.0004 56.71C79.814 56.6981 76.7143 55.6719 74.1504 53.78C68.4304 50.95 58.1504 48.32 48.1504 53.58C46.686 54.7341 45.0118 55.5933 43.2204 56.11C46.0791 63.9254 51.2588 70.68 58.065 75.4683C64.8713 80.2567 72.9787 82.8498 81.3004 82.9Z" fill="#55606A"/>
<path fillRule="evenodd" clipRule="evenodd" d="M78.8902 27.9C75.6248 18.8814 69.2763 11.3075 60.9667 6.51701C52.6571 1.7265 42.9216 0.0277987 33.4807 1.72115C24.0398 3.41451 15.5014 8.39088 9.37478 15.7707C3.24813 23.1506 -0.0723595 32.4587 0.00018751 42.05C-0.0610274 51.6347 3.26488 60.9329 9.39112 68.3044C15.5174 75.6758 24.0502 80.6467 33.4843 82.34C42.9184 84.0334 52.6474 82.3403 60.9548 77.5596C69.2622 72.7788 75.6143 65.2176 78.8902 56.21C77.1744 55.7055 75.5695 54.881 74.1602 53.78C68.4402 50.95 58.1602 48.32 48.1602 53.58C45.607 55.623 42.4301 56.7279 39.1602 56.71C35.2456 56.71 31.4913 55.1549 28.7233 52.3869C25.9553 49.6189 24.4002 45.8646 24.4002 41.95C24.4002 38.0354 25.9553 34.2812 28.7233 31.5131C31.4913 28.7451 35.2456 27.19 39.1602 27.19C41.0897 27.1788 43.0015 27.5584 44.7803 28.306C46.5591 29.0536 48.1681 30.1537 49.5102 31.54C55.1402 34.67 63.7802 36.99 72.1202 32.14C73.9087 30.0893 76.2644 28.6139 78.8902 27.9Z" fill="#162029"/>
</svg>
