<svg width="351" height="177" viewBox="0 0 351 177" fill="none" xmlns="http://www.w3.org/2000/svg">
<path d="M51.925 171.994C50.4244 172.59 48.8238 173.185 47.2231 173.682C45.6189 174.216 43.9815 174.648 42.3211 174.972C40.5749 175.383 38.8038 175.681 37.019 175.866C35.0252 176.074 33.0213 176.173 31.0165 176.163C26.808 176.182 22.6116 175.715 18.5115 174.774C15.0209 173.919 11.7045 172.476 8.7075 170.505C6.06466 168.584 3.87905 166.11 2.30491 163.259C0.726039 160.118 -0.0633998 156.644 0.00397791 153.135C-0.0633998 149.625 0.726039 146.151 2.30491 143.01C3.81671 140.116 6.01379 137.629 8.7075 135.764C11.6661 133.703 14.9935 132.221 18.5115 131.396C22.603 130.406 26.8055 129.939 31.0165 130.006C33.0212 130.002 35.0248 130.101 37.019 130.304C38.8038 130.489 40.5749 130.787 42.3211 131.198C44.0218 131.595 45.6225 131.992 47.2231 132.488C48.8238 132.984 50.3244 133.58 51.925 134.175V144.896C50.7245 144.201 49.424 143.605 48.0234 142.911C46.5813 142.179 45.0743 141.581 43.5216 141.124C41.7574 140.555 39.9512 140.124 38.1194 139.833C35.9341 139.505 33.727 139.339 31.5167 139.337C28.3393 139.256 25.168 139.658 22.1129 140.528C19.9539 141.142 17.945 142.19 16.2105 143.605C14.8212 144.778 13.7542 146.28 13.1093 147.973C12.5117 149.629 12.2071 151.375 12.2089 153.135C12.1936 154.305 12.3281 155.472 12.6091 156.609C12.9111 157.748 13.3477 158.847 13.9096 159.884C14.5651 160.925 15.3745 161.862 16.3106 162.664C17.3816 163.583 18.5985 164.321 19.9121 164.847C21.5271 165.503 23.2023 166.001 24.9141 166.336C27.1321 166.672 29.373 166.838 31.6168 166.833C33.8271 166.831 36.0341 166.665 38.2195 166.336C40.0583 166.082 41.8676 165.65 43.6217 165.046C45.1503 164.56 46.6529 163.997 48.1235 163.359C49.524 162.664 50.7245 162.068 52.0251 161.373V171.994H51.925Z" fill="white"/>
<path d="M98.9437 166.733H74.2337L70.032 175.071H56.7266L79.8359 131.197H93.1413L116.251 175.071H102.945L98.9437 166.733ZM78.5354 158.097H94.742L86.7387 141.918L78.5354 158.097Z" fill="white"/>
<path d="M145.863 140.628V174.972H133.958V140.628H115.15V131.098H164.67V140.628H145.863Z" fill="white"/>
<path d="M172.674 174.972V131.098H217.492V140.429H184.979V147.675H215.791V157.006H184.979V165.542H217.992V174.873H172.674V174.972Z" fill="white"/>
<path d="M271.214 174.972L241.402 144.796V174.972H229.497V131.098H242.502L272.414 161.373V131.098H284.319V174.972H271.214Z" fill="white"/>
<path d="M333.539 166.733H308.829L304.628 175.071H291.322L314.432 131.197H327.737L350.846 175.071H337.541L333.539 166.733ZM313.231 158.097H329.438L321.434 141.918L313.231 158.097Z" fill="white"/>
<path fill-rule="evenodd" clip-rule="evenodd" d="M199.679 100.21C208.848 100.21 217.841 97.701 225.683 92.9544C233.524 88.2079 239.913 81.4055 244.155 73.2866C248.397 65.1677 250.33 56.0427 249.744 46.9034C249.158 37.764 246.076 28.9598 240.832 21.4476C235.588 13.9353 228.383 8.00226 219.999 4.29322C211.616 0.58418 202.375 -0.758997 193.282 0.409647C184.188 1.57829 175.588 5.21405 168.418 10.9218C161.248 16.6296 155.781 24.1911 152.611 32.7846C155.517 33.6393 158.158 35.2139 160.291 37.3621C167.227 41.1973 177.879 44.0427 188.16 38.1044C190.166 35.8503 192.705 34.1339 195.546 33.1116C198.386 32.0894 201.438 31.7938 204.423 32.252C207.407 32.7101 210.229 33.9074 212.631 35.7346C215.033 37.5617 216.939 39.9606 218.175 42.7123C219.411 45.4641 219.937 48.4811 219.706 51.4881C219.475 54.4952 218.493 57.3965 216.851 59.9275C215.209 62.4584 212.959 64.5384 210.305 65.9777C207.652 67.417 204.68 68.1697 201.661 68.1672C197.739 68.1502 193.924 66.8944 190.761 64.5795C183.701 61.1155 171.067 57.8989 158.681 64.3321C156.878 65.7478 154.817 66.7984 152.611 67.425C156.158 77.0416 162.572 85.3407 170.988 91.203C179.405 97.0652 189.418 100.209 199.679 100.21Z" fill="#D1D1D1"/>
<path fill-rule="evenodd" clip-rule="evenodd" d="M196.582 32.9084C192.511 21.8705 184.682 12.6152 174.466 6.76349C164.249 0.911796 152.298 -1.16318 140.704 0.902004C129.11 2.96719 118.613 9.04087 111.051 18.0592C103.49 27.0775 99.3467 38.4655 99.3467 50.2285C99.3467 61.9915 103.49 73.3795 111.051 82.3978C118.613 91.4162 129.11 97.4898 140.704 99.555C152.298 101.62 164.249 99.5452 174.466 93.6935C184.682 87.8418 192.511 78.5865 196.582 67.5487C194.471 66.9365 192.495 65.9289 190.761 64.5795C183.701 61.1155 171.067 57.8989 158.681 64.3321C155.515 66.8498 151.579 68.2039 147.533 68.1673C145.158 68.1673 142.807 67.7001 140.613 66.7923C138.419 65.8846 136.425 64.5541 134.746 62.8769C133.067 61.1996 131.734 59.2084 130.826 57.017C129.917 54.8256 129.449 52.4768 129.449 50.1048C129.449 47.7328 129.917 45.384 130.826 43.1926C131.734 41.0012 133.067 39.01 134.746 37.3327C136.425 35.6555 138.419 34.325 140.613 33.4173C142.807 32.5095 145.158 32.0423 147.533 32.0423C149.908 32.0273 152.262 32.4907 154.454 33.4047C156.646 34.3187 158.631 35.6647 160.291 37.3621C167.227 41.1973 177.879 44.0427 188.16 38.1044C190.434 35.6297 193.349 33.8314 196.582 32.9084Z" fill="white"/>
</svg>
