<svg width="204" height="136" viewBox="0 0 204 136" fill="none" xmlns="http://www.w3.org/2000/svg">
<path d="M72.7635 44.3965L72.5186 45.0554C76.3688 46.1844 79.8642 48.2583 82.6762 51.0822C91.8214 56.1125 105.964 59.8572 119.583 52.0465C121.812 49.5424 124.559 47.5369 127.641 46.1647C130.722 44.7925 134.067 44.0855 137.449 44.0911C143.842 44.0911 149.973 46.5903 154.493 51.0389C159.014 55.4876 161.553 61.5212 161.553 67.8125C161.553 74.1038 159.014 80.1375 154.493 84.5861C149.973 89.0347 143.842 91.534 137.449 91.534C132.251 91.5114 127.195 89.8623 123.013 86.825C113.672 82.2768 96.8839 78.05 80.5532 86.5036C78.1659 88.3552 75.4377 89.7359 72.5186 90.5697" stroke="#D1D1D1" stroke-width="4" stroke-miterlimit="10"/>
<path d="M101.521 124.754C110.281 129.788 120.101 132.77 130.22 133.467C140.339 134.163 150.485 132.557 159.871 128.771" stroke="#D1D1D1" stroke-width="4" stroke-miterlimit="10"/>
<path d="M159.871 128.771C174.14 122.958 185.927 112.468 193.237 99.0808C200.547 85.6932 202.93 70.2304 199.982 55.3119C197.034 40.3933 188.936 26.9363 177.061 17.2205C165.186 7.50478 150.262 2.12764 134.82 2.00002C122.865 1.99004 111.134 5.18474 100.885 11.2411" stroke="#D1D1D1" stroke-width="4" stroke-miterlimit="10"/>
<path fill-rule="evenodd" clip-rule="evenodd" d="M130.721 45.2322C125.399 30.7416 115.041 18.5705 101.478 10.8722C87.9161 3.17386 72.0241 0.444549 56.6139 3.16711C41.2038 5.88967 27.2688 13.8886 17.2744 25.7488C7.27997 37.6089 1.87031 52.5658 2.00251 67.9733C1.86635 83.3821 7.2732 98.3417 17.2663 110.205C27.2594 122.068 41.1945 130.07 56.6058 132.794C72.017 135.519 87.9109 132.791 101.475 125.093C115.039 117.394 125.398 105.222 130.721 90.7304C127.925 89.916 125.31 88.5912 123.013 86.8251C113.671 82.2768 96.8835 78.0501 80.5529 86.5036C76.3847 89.7893 71.1957 91.5653 65.8553 91.534C59.4625 91.534 53.3316 89.0348 48.8112 84.5861C44.2908 80.1375 41.7513 74.1039 41.7513 67.8126C41.7513 61.5212 44.2908 55.4876 48.8112 51.039C53.3316 46.5903 59.4625 44.0911 65.8553 44.0911C68.993 44.0811 72.1004 44.6952 74.9909 45.8966C77.8814 47.098 80.4954 48.8618 82.6759 51.0822C91.8211 56.1126 105.963 59.8572 119.583 52.0465C122.55 48.7656 126.418 46.3991 130.721 45.2322Z" stroke="white" stroke-width="4" stroke-miterlimit="10"/>
</svg>
