<svg width="203" height="135" viewBox="0 0 203 135" fill="none" xmlns="http://www.w3.org/2000/svg">
<path fillRule="evenodd" clipRule="evenodd" d="M134.998 134.833C147.335 134.834 159.436 131.458 169.986 125.071C180.537 118.685 189.133 109.532 194.841 98.6081C200.549 87.684 203.15 75.4063 202.362 63.1091C201.574 50.812 197.426 38.9659 190.37 28.858C183.314 18.7501 173.619 10.7671 162.34 5.77659C151.06 0.786022 138.626 -1.02124 126.39 0.551185C114.154 2.12361 102.584 7.01558 92.9361 14.6955C83.2884 22.3754 75.9326 32.5495 71.668 44.1122C75.5771 45.2621 79.1315 47.3808 82.0007 50.2712C91.3336 55.4315 105.666 59.2601 119.499 51.27C122.198 48.2371 125.614 45.9276 129.437 44.5521C133.259 43.1767 137.365 42.779 141.381 43.3955C145.396 44.012 149.193 45.6229 152.426 48.0814C155.658 50.5398 158.222 53.7675 159.885 57.4701C161.548 61.1726 162.256 65.232 161.945 69.278C161.634 73.324 160.313 77.2278 158.104 80.6332C155.894 84.0387 152.866 86.8373 149.296 88.7739C145.726 90.7105 141.727 91.7233 137.664 91.72C132.388 91.697 127.255 90.0073 122.999 86.8926C113.499 82.2317 96.5 77.9037 79.8342 86.5597C77.4093 88.4645 74.6353 89.8782 71.668 90.7212C76.4403 103.661 85.0705 114.827 96.3946 122.715C107.719 130.603 121.192 134.832 134.998 134.833Z" fill="#D1D1D1"/>
<path fillRule="evenodd" clipRule="evenodd" d="M130.832 44.2786C125.354 29.4271 114.82 16.9739 101.074 9.10038C87.3274 1.22683 71.2461 -1.56508 55.6462 1.21366C40.0464 3.99239 25.9227 12.1646 15.7489 24.2989C5.57514 36.4332 0 51.7559 0 67.5832C0 83.4104 5.57514 98.7331 15.7489 110.867C25.9227 123.002 40.0464 131.174 55.6462 133.953C71.2461 136.731 87.3274 133.939 101.074 126.066C114.82 118.192 125.354 105.739 130.832 90.8877C127.991 90.064 125.333 88.7082 122.999 86.8926C113.499 82.2317 96.5003 77.9037 79.8345 86.5597C75.5754 89.9474 70.2796 91.7693 64.8353 91.72C61.64 91.72 58.4759 91.0914 55.5238 89.87C52.5717 88.6487 49.8894 86.8585 47.63 84.6017C45.3705 82.345 43.5783 79.6658 42.3555 76.7172C41.1327 73.7686 40.5033 70.6083 40.5033 67.4167C40.5033 64.2252 41.1327 61.0649 42.3555 58.1162C43.5783 55.1676 45.3705 52.4885 47.63 50.2317C49.8894 47.9749 52.5717 46.1848 55.5238 44.9634C58.4759 43.742 61.64 43.1134 64.8353 43.1134C68.0313 43.0932 71.1985 43.7166 74.1479 44.9465C77.0972 46.1763 79.7681 47.9873 82.001 50.2712C91.3339 55.4315 105.666 59.2601 119.499 51.27C122.559 47.9402 126.481 45.5206 130.832 44.2786Z" fill="white"/>
</svg>
