<svg width="140" height="141" viewBox="0 0 140 141" fill="none" xmlns="http://www.w3.org/2000/svg">
<g clip-path="url(#clip0_1529_22937)">
<path d="M70.0059 141.012C108.669 141.012 140.012 109.445 140.012 70.5059C140.012 31.5666 108.669 0 70.0059 0C31.3427 0 0 31.5666 0 70.5059C0 109.445 31.3427 141.012 70.0059 141.012Z" fill="#EBEBEB"/>
<path d="M96.4489 26.9685L94.4762 25.4442C94.2525 25.2951 94.0642 25.099 93.9244 24.8696C93.828 24.5858 93.7727 24.2896 93.76 23.9902C93.6551 23.4574 93.3581 22.9816 92.9252 22.6531C92.4923 22.3245 91.9537 22.1661 91.4116 22.2079C90.9536 21.1057 90.848 19.9331 90.4722 18.7606C90.3223 18.1978 90.0261 17.6846 89.6137 17.2728C89.2014 16.861 88.6874 16.5652 88.1238 16.4155C87.7088 16.3972 87.2962 16.3422 86.8909 16.2513C86.4603 15.991 86.0655 15.6757 85.7167 15.3133C84.3899 14.3049 82.0884 14.856 81.2547 13.4137C81.0551 13.0854 80.9847 12.675 80.7498 12.3584C80.4184 11.9991 79.9904 11.7427 79.5169 11.6197C77.8613 11.0217 75.9943 10.4472 74.3974 11.0803C73.8562 11.3914 73.281 11.6393 72.6831 11.819C71.9903 11.9246 71.2388 11.6666 70.6047 11.948C70.2172 12.1122 69.9002 12.4757 69.4892 12.4874C69.1909 12.4798 68.9029 12.3771 68.6673 12.1943C67.0644 11.2263 65.1863 10.8141 63.3247 11.0217C63.5342 10.8673 63.7632 10.7411 64.0057 10.6465C64.1935 10.5788 64.3858 10.5239 64.5811 10.4823C65.0425 10.3503 65.4523 10.0802 65.7553 9.70844L65.6379 9.49738C65.3795 9.67327 65.0508 9.49738 64.8159 9.3215C64.5811 9.14561 64.3462 8.9111 64.041 8.92283C63.7357 8.93455 63.7591 9.00491 63.6182 9.02836C62.9959 9.16906 62.444 8.64141 61.7865 8.62969C61.5784 8.63917 61.3727 8.67867 61.1759 8.74694C60.2734 9.03625 59.4358 9.49823 58.7101 10.1071C58.6247 10.1704 58.5528 10.2502 58.4987 10.3416C58.4522 10.4785 58.4522 10.6269 58.4987 10.7637C58.533 11.0102 58.6253 11.2451 58.7682 11.4489C58.9111 11.6528 59.1005 11.8198 59.3207 11.9363C59.8087 12.1356 60.3481 12.1726 60.8589 12.0418H61.0115C60.6726 12.3149 60.3929 12.654 60.1896 13.0385C59.9976 13.4083 59.9144 13.8248 59.9497 14.2399C59.9851 14.6549 60.1374 15.0515 60.3892 15.3836C59.7786 15.794 59.1093 14.8325 58.3813 14.7622C57.8529 14.7622 57.4067 15.1608 57.0545 15.5595L55.5867 17.2128L53.8489 16.7203C53.5738 16.6332 53.2785 16.6332 53.0035 16.7203C52.7521 16.8668 52.5261 17.0529 52.3342 17.2714C52.1703 17.4229 51.9725 17.5329 51.7573 17.5922C51.5421 17.6516 51.3158 17.6586 51.0973 17.6127C50.8788 17.5668 50.6745 17.4692 50.5016 17.3283C50.3286 17.1873 50.192 17.007 50.1032 16.8024C50.3442 16.6825 50.5324 16.4779 50.6316 16.2279C50.5812 16.1049 50.4921 16.0017 50.3776 15.9339C50.2632 15.8662 50.1297 15.8377 49.9975 15.8526C50.0675 15.4835 50.2779 15.1557 50.5846 14.938C50.9956 14.6566 51.5944 14.5394 51.7588 14.0821L52.6982 13.4723C52.817 13.4083 52.9179 13.3156 52.9917 13.2027C53.0255 13.1524 53.0436 13.0932 53.0436 13.0326C53.0436 12.9721 53.0255 12.9129 52.9917 12.8626C53.5671 12.2646 52.8626 10.7989 53.4849 10.0485C53.708 9.83565 53.9926 9.69844 54.2982 9.65634C54.6039 9.61424 54.915 9.6694 55.1875 9.81397C55.7206 10.1649 56.3135 10.4153 56.937 10.5527C57.8881 10.623 58.6631 9.86087 59.3911 9.23942C59.7142 8.89451 60.1263 8.64525 60.582 8.51906C61.0378 8.39287 61.5195 8.39463 61.9744 8.52416C61.7043 8.43035 62.4675 7.23435 62.902 7.26952C63.3364 7.3047 63.1955 7.71509 63.3951 7.82062C64.6985 8.53588 66.3306 7.59784 67.7397 7.43368C69.5288 7.23391 71.3379 7.30506 73.1058 7.64474C73.2232 7.17572 72.6948 6.82395 72.2604 6.63634C70.7109 5.88964 69.0902 5.3004 67.4226 4.87751C64.4031 4.30215 61.2789 4.68341 58.487 5.96798C57.8362 6.33476 57.1082 6.54362 56.3617 6.57771C55.9859 6.57771 55.6337 6.43701 55.2579 6.43701C54.6054 6.48005 53.995 6.7743 53.5553 7.2578C53.004 7.27128 52.4673 7.43774 52.0054 7.73855C51.7986 7.86453 51.5987 8.00153 51.4065 8.14894C51.5357 8.32482 51.8058 8.21929 51.9936 8.14894C52.333 7.96368 52.7028 7.84057 53.0857 7.78545L52.8391 7.99651C52.3929 8.52416 51.7471 8.38345 51.066 8.46553C50.8278 8.48068 50.5918 8.51997 50.3615 8.58279C50.1231 8.67159 49.9097 8.81637 49.7392 9.00491L50.4085 8.20757C50.4971 8.13066 50.5673 8.03494 50.614 7.9274C50.6608 7.81987 50.6828 7.70326 50.6785 7.58611C51.0184 7.57721 51.3512 7.48745 51.6494 7.32431C51.9476 7.16116 52.2024 6.92933 52.3929 6.64807C52.4444 6.54795 52.5214 6.46306 52.616 6.40183C52.8156 6.2963 53.0622 6.40183 53.2618 6.40183C53.4614 6.40183 53.5084 6.14387 53.6023 5.99144C53.8811 5.6042 54.2637 5.30343 54.7061 5.12374L56.7726 4.05672L55.9507 3.92773C55.7574 3.93597 55.565 3.9595 55.3753 3.99809H55.3049C53.0177 4.13138 50.7847 4.74679 48.7528 5.80383C48.5849 5.90243 48.408 5.98487 48.2245 6.05006C48.0516 6.11165 47.8752 6.16255 47.6961 6.2025C46.5632 6.51471 45.4684 6.95122 44.4318 7.50403L38.5608 10.4003C38.3494 10.5058 38.1028 10.6817 38.1616 10.9045L39.3358 11.0452C38.4305 11.2507 37.581 11.6509 36.8465 12.2177C36.6284 12.421 36.3676 12.5732 36.0832 12.6633C35.9188 12.6633 35.7427 12.6633 35.5783 12.6633C35.3456 12.7315 35.1297 12.8473 34.9442 13.0033L28.8032 17.588C27.6183 18.4084 26.5171 19.3432 25.5154 20.3787C24.295 21.5089 23.1644 22.732 22.1337 24.0371C21.4057 25.2096 20.9595 26.476 20.1493 27.5548L21.8636 26.2063C22.1321 26.0045 22.3799 25.7767 22.6034 25.5262C22.7781 25.314 22.9389 25.0908 23.0848 24.8579C23.4882 24.2878 23.9316 23.7471 24.4117 23.2398C24.6264 22.9841 24.8753 22.7592 25.1514 22.5714C25.3377 22.4813 25.5181 22.3794 25.6915 22.2665C25.8946 22.095 26.0868 21.9109 26.2669 21.7154C26.3594 21.6198 26.4748 21.5492 26.6021 21.5102C26.7294 21.4713 26.8646 21.4652 26.9949 21.4926C26.7926 21.8647 26.5691 22.2249 26.3256 22.5714C26.249 22.6985 26.1447 22.8068 26.0203 22.888C25.8764 22.941 25.7266 22.9764 25.5741 22.9935C24.9283 23.1342 24.5878 23.826 24.3177 24.4358H25.0927C25.117 24.5058 25.1243 24.5805 25.1141 24.6539C25.1039 24.7272 25.0765 24.7971 25.034 24.8579C24.429 26.1626 23.6765 27.394 22.7913 28.528C23.4008 27.7365 23.7751 26.7898 23.8715 25.7959C22.9794 26.4374 22.1879 27.2081 21.5231 28.0824C21.1114 28.6769 20.4912 29.0953 19.7853 29.255C19.7946 28.9449 19.8924 28.6438 20.0671 28.3873C19.3509 28.3873 18.8929 29.0908 18.5407 29.7357C17.8831 31.0373 17.2373 32.3505 16.5797 33.6521L15.3233 36.1496L14.337 38.1078C14.2588 38.2211 14.2075 38.3508 14.1871 38.487C14.1668 38.6232 14.1779 38.7622 14.2196 38.8934C15.1712 37.9581 16.0106 36.9153 16.7206 35.7861C16.8373 35.5809 16.975 35.3883 17.1316 35.2116C17.3077 35.0357 17.5074 34.895 17.6952 34.7308C18.4115 34.0859 18.7285 33.0541 19.527 32.5147C19.527 33.3003 18.7872 33.8514 18.2588 34.4259C17.7185 35.0314 17.3177 35.7479 17.0846 36.5248C17.028 36.782 16.9372 37.0304 16.8146 37.2635C16.6854 37.4863 16.4858 37.6622 16.3449 37.885C16.1071 38.3976 16.0372 38.972 16.1453 39.5266C16.1453 39.5266 16.1453 39.5852 16.1453 39.6204C16.1453 39.6556 16.2979 39.6204 16.3684 39.6204L17.8596 38.6706C17.8571 39.0788 17.9287 39.484 18.071 39.8666C18.1452 40.0856 18.1689 40.3185 18.1405 40.5479C18.112 40.7773 18.0321 40.9973 17.9066 41.1916C17.0506 41.9419 16.5027 42.9818 16.3684 44.1113C16.404 44.5793 16.3454 45.0496 16.1962 45.4947C16.047 45.9397 15.8101 46.3504 15.4995 46.7026C15.3468 46.8316 15.1472 46.9489 15.1002 47.1365C15.0753 47.3309 15.0995 47.5284 15.1707 47.711C15.3233 48.4263 14.7128 49.0595 14.29 49.6457C14.153 49.8085 14.0564 50.0014 14.0082 50.2086C13.9848 50.3954 13.9848 50.5845 14.0082 50.7714C14.0338 51.2075 13.949 51.643 13.7617 52.0378L14.7128 52.6006C14.8753 52.6842 15.0191 52.7999 15.1355 52.9406C15.2317 53.1218 15.3141 53.3099 15.3821 53.5035C15.523 53.7731 15.8165 53.9608 15.8987 54.2656C15.9222 54.4211 15.9222 54.5792 15.8987 54.7346C15.8344 55.5502 16.0142 56.3665 16.4154 57.0798C16.553 57.296 16.6634 57.5284 16.7441 57.7716C16.8615 58.3227 16.5093 58.9441 16.7441 59.46C16.5445 59.46 16.6502 59.8353 16.7441 59.976C16.9074 60.0951 17.1056 60.157 17.3077 60.1519C17.4075 60.1482 17.5069 60.165 17.5998 60.2014C17.6927 60.2377 17.7771 60.2927 17.8479 60.3629C18.0592 60.6678 17.7539 61.0547 17.6483 61.4182C17.598 61.5941 17.5954 61.7801 17.6408 61.9573C17.6862 62.1345 17.7779 62.2965 17.9066 62.4266C18.0475 62.5673 18.2471 62.6963 18.2236 62.8956C18.2001 63.095 17.9183 63.1888 17.7187 63.2943C17.1316 63.5874 17.1434 64.4669 17.4017 65.0531C17.7562 65.612 17.9882 66.2393 18.0827 66.8941C18.3499 66.9306 18.6015 67.0412 18.809 67.2132C19.0166 67.3852 19.1717 67.6118 19.2569 67.8673C19.2569 68.0314 19.3509 68.2425 19.5152 68.3011C19.6796 68.3598 19.9145 68.1487 19.9967 67.9494C20.255 67.2224 19.9967 66.343 20.4194 65.6863C20.6401 65.4013 20.8835 65.1347 21.1474 64.889C21.2743 64.7652 21.3645 64.6088 21.408 64.4371C21.4515 64.2653 21.4466 64.0849 21.394 63.9158C21.3 63.7164 21.1122 63.5874 21.0065 63.3998C20.9008 63.2122 20.9478 62.9074 21.1591 62.8839C21.4644 63.1068 21.6873 63.4242 21.7932 63.7868H22.6034V65.0766C22.3593 65.262 22.1779 65.5175 22.0835 65.8088C21.989 66.1002 21.9861 66.4134 22.075 66.7065C22.1 66.8024 22.1441 66.8923 22.2046 66.9709C22.2651 67.0494 22.3408 67.115 22.4273 67.1637C22.5447 67.1637 22.6856 67.1637 22.8147 67.281C23.5075 67.5507 23.2492 68.9226 23.9889 69.0633C24.2825 69.1219 24.576 68.8991 24.8696 68.9226C25.1632 68.946 25.3862 69.0867 25.5389 68.9226C25.6915 68.7584 25.5389 68.6177 25.5389 68.4653C25.3863 67.9766 25.3863 67.4531 25.5389 66.9644C25.2669 66.3257 25.0928 65.6498 25.0222 64.9593L25.2219 64.8538C25.5908 65.1194 25.8957 65.4639 26.1143 65.8622C26.2317 66.1319 26.2669 66.4368 26.4078 66.6947C26.4709 66.8274 26.5775 66.9345 26.7098 66.9985C26.8422 67.0625 26.9925 67.0794 27.1358 67.0465C27.2505 66.9718 27.3413 66.8658 27.3975 66.7411C27.4536 66.6164 27.4729 66.4782 27.4528 66.343C27.412 66.0709 27.412 65.7942 27.4528 65.5222C27.5585 64.9945 28.1456 64.7248 28.627 64.5372C28.6858 64.7131 28.4509 64.8421 28.2983 64.9593C28.1565 65.1159 28.0538 65.3038 27.9987 65.5076C27.9436 65.7114 27.9376 65.9253 27.9812 66.1319C28.0236 66.8167 28.2597 67.4754 28.6623 68.0314C28.8619 68.3246 29.1562 68.5404 29.496 68.6428C29.8358 68.7453 30.2006 68.7281 30.5292 68.5943C31.2807 68.2073 31.3982 67.1989 31.4099 66.3547C31.6447 66.2374 31.997 66.1436 32.1262 66.3547C32.2553 66.5657 32.1262 66.7182 32.1262 66.9058C32.1262 67.0934 32.5724 67.4569 32.5958 67.8087C32.5883 68.005 32.5184 68.1939 32.3962 68.348C32.1262 68.8053 31.9383 69.5206 32.3962 69.7785C32.5206 69.8376 32.6504 69.8847 32.7837 69.9193C33.1005 70.0264 33.3769 70.2275 33.5762 70.4957C33.7756 70.7638 33.8882 71.0863 33.8992 71.4201C34.015 71.4514 34.117 71.5202 34.1893 71.6157C34.2616 71.7112 34.3 71.8281 34.2984 71.9478C34.2934 72.0697 34.248 72.1864 34.1694 72.2798C34.0908 72.3732 33.9834 72.4379 33.864 72.4637C33.7583 72.4637 33.6409 72.4637 33.5704 72.5458C33.5 72.6279 33.6291 73.05 33.453 73.2024C33.2769 73.3549 33.3121 73.2024 33.2417 73.2845C32.8659 73.4135 32.9129 73.9529 32.9598 74.3515C32.991 74.7991 32.9109 75.2475 32.7265 75.6567C32.5421 76.0658 32.2592 76.4231 31.9031 76.6966C31.6595 76.9109 31.3534 77.0414 31.03 77.0689C30.7065 77.0963 30.3828 77.0192 30.1065 76.8491C29.893 76.629 29.7004 76.3895 29.5312 76.1338C29.4453 76.0071 29.3232 75.9091 29.1808 75.8527C29.0384 75.7962 28.8823 75.7839 28.7327 75.8172C28.6162 75.8741 28.5123 75.9538 28.4274 76.0517C27.75 76.565 27.2527 77.2792 27.0066 78.092C26.983 78.3605 26.9237 78.6246 26.8305 78.8776C26.6896 79.1825 26.3843 79.3701 26.173 79.628C26.0371 79.7887 25.9366 79.9762 25.8779 80.1782C25.8193 80.3802 25.8038 80.5922 25.8324 80.8006C26.0555 81.0703 25.715 81.4455 25.5741 81.7621C25.4332 82.0787 25.1866 82.3718 25.0692 82.7001C24.8852 83.4307 24.9642 84.2027 25.2923 84.8811C25.5388 85.8406 26.028 86.7208 26.7131 87.4373C26.9128 87.5962 27.1206 87.7449 27.3354 87.8828C28.2277 88.386 28.9726 89.1137 29.496 89.9934C30.0126 90.1224 30.5997 89.6768 31.0576 89.9934C31.2129 90.1175 31.3341 90.2789 31.4099 90.4625L32.1379 91.9282C32.3027 92.3331 32.5697 92.6886 32.9129 92.96C33.0878 93.093 33.3072 93.1538 33.5258 93.1298C33.7443 93.1058 33.9453 92.9988 34.0871 92.831C34.3689 92.3855 34.0166 91.764 34.1928 91.2598C34.3689 90.7556 35.4961 90.4273 35.5783 89.712C35.5783 89.4072 35.4609 89.0437 35.684 88.8326C35.7886 88.764 35.9036 88.7125 36.0245 88.6802C36.2118 88.5934 36.3625 88.4438 36.4505 88.2573C36.5385 88.0709 36.5581 87.8595 36.5059 87.66C37.3866 87.5897 38.4551 87.66 38.8543 88.387C38.9483 88.5512 39.1244 88.7857 39.2653 88.6567C39.1069 87.6978 39.1069 86.7194 39.2653 85.7605C39.341 85.5019 39.3649 85.231 39.3358 84.9632C39.1714 84.1776 38.0559 84.0251 37.6801 83.3216C37.3044 82.618 38.0324 81.34 37.4688 80.6012C37.1165 80.144 36.3885 80.0736 36.1302 79.5694C36.0772 79.3795 36.0064 79.195 35.9188 79.0183C35.7793 78.8717 35.6167 78.7489 35.4374 78.6548C35.1607 78.3829 34.9558 78.0467 34.841 77.6763C34.7262 77.306 34.7052 76.9129 34.7799 76.5325C34.9552 75.7606 34.9552 74.9593 34.7799 74.1874C34.6549 73.9265 34.5641 73.6506 34.5098 73.3666C34.5002 73.2421 34.516 73.1169 34.5561 72.9986C34.5962 72.8803 34.6598 72.7713 34.7432 72.6782C34.8265 72.5851 34.9279 72.5098 35.0411 72.4568C35.1544 72.4038 35.2772 72.3743 35.4022 72.3699C35.5266 72.376 35.6481 72.4088 35.7587 72.4659C35.8693 72.5231 35.9663 72.6033 36.0431 72.7011C36.12 72.799 36.1749 72.9122 36.2041 73.0331C36.2332 73.1539 36.2361 73.2797 36.2124 73.4017C36.0844 73.7153 35.8925 73.9988 35.6488 74.2343C35.4374 74.504 35.2848 74.9026 35.4844 75.1723C35.6035 75.2044 35.7119 75.2677 35.7984 75.3556C35.8848 75.4435 35.9462 75.5529 35.9761 75.6725C36.006 75.792 36.0034 75.9174 35.9686 76.0356C35.9338 76.1538 35.8679 76.2606 35.7779 76.3449C35.641 76.4121 35.5078 76.4865 35.3787 76.5677C35.2505 76.7182 35.1801 76.9094 35.1801 77.107C35.1801 77.3047 35.2505 77.4959 35.3787 77.6464C35.5901 77.9747 35.9306 78.2092 36.1654 78.5258C36.2724 78.7069 36.4214 78.8597 36.5999 78.9714C36.7088 78.9885 36.8197 78.9885 36.9286 78.9714H37.821C37.9674 78.992 38.1166 78.9711 38.2516 78.9109C38.3866 78.8508 38.5019 78.7539 38.5843 78.6314C39.0762 78.2236 39.6314 77.8988 40.2281 77.6699C40.4295 77.5704 40.6495 77.5145 40.874 77.5057C41.3906 77.5057 41.7076 78.0685 42.0482 78.4555C42.603 78.9855 43.2688 79.386 43.9973 79.628C44.4718 78.4234 44.5338 77.0958 44.1735 75.8524C43.684 74.9803 43.0621 74.1892 42.33 73.5073C41.9791 73.1634 41.7185 72.7386 41.5711 72.2703C41.4236 71.802 41.3939 71.3046 41.4845 70.8221L41.9894 70.5642C42.3455 70.7231 42.6654 70.9526 42.9298 71.2389C43.1943 71.5251 43.3977 71.862 43.5277 72.2292C43.6694 72.8084 43.7753 73.3958 43.8447 73.988C44.0261 74.8802 44.472 75.6973 45.1246 76.3331V74.2812C45.1081 74.1827 45.1121 74.0819 45.1364 73.9851C45.1606 73.8883 45.2046 73.7975 45.2655 73.7183C45.3434 73.6648 45.4321 73.6287 45.5253 73.6125C45.6185 73.5964 45.7141 73.6004 45.8056 73.6245C46.3736 73.6937 46.9326 73.8234 47.473 74.0115C47.6406 74.0598 47.7938 74.1484 47.9192 74.2694C48.0412 74.4502 48.1103 74.6614 48.1188 74.8792C48.2127 75.7234 48.2245 76.7435 47.5199 77.2243C47.0033 77.5643 46.2283 77.4705 45.8643 77.9747C45.5003 78.4789 45.6647 78.819 45.3594 79.0887C45.0541 79.3583 44.9132 79.288 44.784 79.4873C44.6549 79.6867 44.8662 80.2026 44.784 80.5543C44.7019 80.9061 44.5375 80.9999 44.6197 81.211C44.7019 81.422 44.7958 81.422 44.9015 81.5158C45.3946 81.9614 45.289 82.6884 45.1363 83.3919C44.9837 84.0955 44.8897 84.4472 44.7723 84.9749C44.8715 83.8933 44.58 82.8119 43.9504 81.9262C43.3679 81.9833 42.7807 81.8862 42.2478 81.6448C41.9803 81.5294 41.6852 81.4934 41.3978 81.5413C41.1104 81.5891 40.8429 81.7187 40.6274 81.9145C40.5004 82.1226 40.4265 82.3587 40.4122 82.602C40.3978 82.8452 40.4435 83.0883 40.5452 83.3099C40.7491 83.7524 40.8647 84.2303 40.8857 84.7169C40.8857 85.3149 40.4513 85.8895 40.7683 86.4523L41.4728 86.7572C41.8485 86.9213 42.3065 87.3435 42.0247 87.6483C41.7429 87.9532 41.1205 87.8125 41.1675 88.176C41.1862 88.2679 41.236 88.3507 41.3084 88.4105C41.8368 88.9733 42.4826 89.712 42.1773 90.439C42.386 90.4096 42.5985 90.4247 42.8009 90.4833C43.0033 90.542 43.191 90.6427 43.3515 90.779C44.2653 91.3834 45.0317 92.1848 45.5943 93.1242C45.7704 93.4173 45.923 93.7222 46.0992 94.0153C46.4984 94.0153 46.6041 93.4759 46.5571 93.0773C46.4866 92.4675 46.4279 91.9047 46.3575 91.2481C46.3163 90.7844 46.2338 90.3253 46.1109 89.8762C45.923 89.2547 45.5825 88.7036 45.3594 88.0587C45.2285 87.7571 45.161 87.4318 45.161 87.1031C45.161 86.7743 45.2285 86.4491 45.3594 86.1475C45.7443 86.3928 46.0723 86.7174 46.3214 87.0996C46.5705 87.4818 46.7349 87.9128 46.8037 88.3636C46.8037 88.6919 46.8037 89.0202 46.9094 89.3368C47.062 90.3452 47.7313 91.2246 47.8487 92.233C47.8422 92.5833 47.9102 92.9311 48.0483 93.2531C48.1661 93.4296 48.3178 93.5811 48.4945 93.6987L50.4907 95.2817C50.6433 95.4107 50.7607 95.6921 50.9486 95.5983C50.702 94.7423 50.4437 93.8863 50.1854 93.0186L51.7823 94.3788C51.7087 93.9708 51.7972 93.5502 52.0289 93.2062C52.1599 93.0286 52.348 92.9014 52.5618 92.8459C52.7756 92.7904 53.002 92.81 53.2031 92.9014C53.2949 92.9505 53.3747 93.0194 53.4366 93.103C53.4986 93.1866 53.5412 93.2829 53.5614 93.385C53.5817 93.487 53.579 93.5923 53.5535 93.6932C53.5281 93.7941 53.4806 93.8881 53.4144 93.9684C53.8099 93.6134 54.3068 93.3909 54.8353 93.332C55.3638 93.2731 55.8975 93.3808 56.3617 93.6401C56.5815 93.8094 56.833 93.933 57.1014 94.0036C57.6063 94.0036 58.123 93.5815 58.5809 93.8042C59.0389 94.027 59.1328 94.9065 59.6494 94.8596C59.9547 94.8596 60.1896 94.4374 60.4949 94.5195L60.6005 95.2817C61.4225 95.1879 62.444 94.9299 62.5732 94.1091C62.5618 93.9647 62.5618 93.8197 62.5732 93.6753C62.6714 93.4852 62.817 93.3237 62.9959 93.2062C63.6655 92.7203 64.1499 92.0216 64.3697 91.2246C64.4783 90.8159 64.4416 90.3823 64.2661 89.9975C64.0906 89.6127 63.7869 89.3005 63.4069 89.114C63.2073 88.9381 63.4069 88.6098 63.6065 88.4457C63.8061 88.2815 64.0762 88.0353 63.9588 87.8008C63.8413 87.5662 63.7122 87.5897 63.6065 87.4607C63.3364 87.1207 63.7474 86.5578 63.4773 86.2061C63.3599 86.0536 63.1486 86.0185 62.9842 85.9129C62.8729 85.8233 62.7808 85.7123 62.7133 85.5865C62.6457 85.4607 62.6042 85.3226 62.591 85.1805C62.5779 85.0384 62.5935 84.8951 62.6368 84.759C62.6801 84.623 62.7503 84.4971 62.8433 84.3886C63.2376 83.9689 63.7421 83.6683 64.2993 83.5209L65.8727 82.9346C66.2837 82.7822 66.7651 82.536 66.7768 82.0904C66.7886 81.6448 66.5537 81.3869 66.7768 81.1993C66.9999 81.0117 67.1291 81.1406 67.2935 81.1055C67.7162 80.9999 67.7749 80.4371 67.7514 80.0033C67.7279 79.5694 67.7514 79.3701 67.7514 79.0652C67.7218 78.93 67.7218 78.79 67.7514 78.6548C67.8454 78.3969 68.1037 78.2679 68.315 78.1037C68.5264 77.9396 68.6908 77.6347 68.5499 77.4119L66.4128 77.5057C66.1003 77.5495 65.7818 77.5006 65.497 77.365C65.4259 77.3298 65.3631 77.28 65.3127 77.2188C65.2622 77.1577 65.2252 77.0867 65.2042 77.0103C65.1831 76.9339 65.1785 76.854 65.1905 76.7757C65.2025 76.6974 65.2309 76.6225 65.2739 76.5559L64.7572 76.3801C64.7572 75.9814 64.7572 75.5827 64.7572 75.2075C64.7568 75.0905 64.7808 74.9747 64.8277 74.8674C64.8971 74.7653 64.9896 74.681 65.0977 74.6212L66.0958 73.9529C66.0701 74.138 66.1027 74.3266 66.1889 74.4925C66.2751 74.6584 66.4108 74.7935 66.5772 74.8792C66.8825 74.8792 66.9412 74.4219 66.8003 74.1405C66.6594 73.859 66.4128 73.5659 66.5303 73.2845C66.5303 73.179 66.6712 73.1086 66.7181 73.0031C66.9882 72.5106 66.2132 71.9478 66.3776 71.4084L64.6281 70.9394C64.4966 70.7241 64.3474 70.5201 64.1819 70.3297C62.5048 70.7021 60.7921 70.8908 59.0741 70.8925H58.7101C58.6825 71.348 58.7141 71.8052 58.804 72.2526L59.6259 71.5608C59.5665 72.4306 59.6619 73.304 59.9078 74.1405C59.9958 74.3546 59.9958 74.5947 59.9078 74.8088C59.7903 74.9847 59.5438 75.0433 59.4029 75.1958C58.9684 75.6882 59.8021 76.4739 59.5085 77.0484C58.8627 77.0484 58.3343 76.1573 57.759 76.4504C57.6411 76.5432 57.5154 76.6256 57.3832 76.6966C57.0662 76.7904 56.7961 76.3918 56.8196 76.0517C56.8431 75.7117 57.031 75.4068 57.0779 75.0785C57.0527 74.5836 56.9455 74.0963 56.7609 73.6363C56.7218 73.1662 56.6472 72.6998 56.5378 72.2409C56.3734 71.8071 55.8568 71.4319 55.4458 71.6781C55.448 71.2517 55.3029 70.8375 55.0348 70.5055C51.3804 69.8569 47.9343 68.3453 44.9837 66.0967L44.8428 66.2023C44.5163 66.6743 44.3858 67.2543 44.4788 67.8204C44.4788 68.3832 44.3144 69.0633 43.7742 69.2274C43.2928 68.864 43.3868 68.0549 42.9053 67.6914C42.6822 67.5272 42.3769 67.5038 42.1421 67.3396C41.9863 67.1877 41.864 67.0049 41.7831 66.803C41.7022 66.601 41.6645 66.3844 41.6724 66.1671C41.5922 65.8099 41.5927 65.4393 41.6739 65.0823C41.7552 64.7253 41.9151 64.3909 42.1421 64.1034C42.232 64.0173 42.3351 63.9461 42.4474 63.8923C38.2555 59.6242 59.1328 62.0514 59.1328 55.5789C59.1328 51.0997 58.0995 48.8719 57.2541 47.8752C59.2101 48.4369 61.2443 48.6784 63.2777 48.5904C71.1566 48.5904 73.9629 27.5899 78.2136 33.5934C78.4241 33.3824 78.682 33.2245 78.9658 33.1327C79.2496 33.041 79.5512 33.018 79.8457 33.0658C81.7244 33.4762 81.8771 36.3489 83.5092 37.3691H85.705C85.9006 37.6982 86.188 37.9633 86.5321 38.132C86.8761 38.3007 87.262 38.3656 87.6424 38.3188C88.1783 38.2816 88.6867 38.068 89.0882 37.7116C89.4898 37.3552 89.7617 36.876 89.8616 36.3489C89.9445 35.8216 89.8196 35.2828 89.513 34.8455C89.2065 34.4082 88.7423 34.1066 88.2178 34.0038C87.8936 34.0333 87.5674 34.0333 87.2432 34.0038C87.0822 33.9648 86.943 33.8644 86.8552 33.7241C86.7675 33.5839 86.7381 33.415 86.7735 33.2534C87.3136 32.5147 88.4996 32.7961 89.2158 33.3706C89.9321 33.9452 90.5074 34.766 91.3764 35.0357C91.8578 33.7576 93.8304 33.4293 94.0418 32.0808C94.0311 31.7344 94.0627 31.3879 94.1357 31.049C94.4293 30.3572 95.5448 30.2634 95.7209 29.5364C95.7551 29.2167 95.7231 28.8934 95.627 28.5866C95.5955 28.2667 95.6562 27.9446 95.8018 27.6579C95.9474 27.3713 96.1719 27.1321 96.4489 26.9685Z" fill="#E0E0E0"/>
<path d="M81.2077 37.5218C80.9174 37.3065 80.5915 37.1437 80.2449 37.041C80.9173 38.4509 81.4483 39.9238 81.8301 41.4381C82.0276 41.3028 82.2123 41.1497 82.3819 40.9808C82.4451 40.3539 82.3729 39.7208 82.1704 39.1242C81.9678 38.5275 81.6396 37.9811 81.2077 37.5218Z" fill="#E0E0E0"/>
<path d="M40.5687 40.5001C40.6149 40.5115 40.6633 40.5115 40.7096 40.5001C40.7096 40.5001 40.7918 40.5001 40.8387 40.5001C40.9236 40.4913 41.0093 40.5026 41.0889 40.5331C41.1685 40.5637 41.2397 40.6127 41.2967 40.676C41.4258 40.7933 41.6137 40.8871 41.7546 40.7933C41.8149 40.7378 41.8546 40.6636 41.8674 40.5827C41.8802 40.5018 41.8653 40.419 41.8251 40.3477C41.7428 40.2066 41.687 40.0516 41.6607 39.8904C41.6541 39.8163 41.6541 39.7417 41.6607 39.6676C41.6802 39.5328 41.6594 39.3952 41.6009 39.2721C41.5424 39.1491 41.4488 39.046 41.3319 38.9758C41.2137 38.9122 41.0792 38.885 40.9455 38.8975C40.8118 38.91 40.6848 38.9617 40.5804 39.0461C40.6928 39.1633 40.7701 39.3095 40.8035 39.4683C40.8035 39.6324 40.7213 39.82 40.5569 39.8318C40.3925 39.8435 40.3338 39.7497 40.2164 39.7262C40.1323 39.7054 40.0436 39.7153 39.9661 39.7539C39.8886 39.7926 39.8275 39.8576 39.7937 39.9373C39.9966 40.1911 40.2644 40.3855 40.5687 40.5001Z" fill="#E0E0E0"/>
<path d="M82.335 12.4183C82.6987 12.9857 83.2611 13.3974 83.9124 13.573C84.5638 13.7487 85.2573 13.6756 85.8576 13.368C85.9294 13.3348 85.9934 13.2869 86.0454 13.2273C86.2803 12.9459 86.0454 12.5355 85.8106 12.2424C85.2605 11.9877 84.6566 11.8706 84.051 11.9013C83.4454 11.9319 82.8565 12.1094 82.335 12.4183Z" fill="#E0E0E0"/>
<path d="M75.7125 7.79821L77.4972 8.021C77.8025 8.021 78.2135 8.29069 78.0491 8.54865C77.6264 8.46657 77.2741 8.99422 77.3798 9.41634C77.4478 9.62268 77.5626 9.81051 77.7154 9.96511C77.8682 10.1197 78.0548 10.2369 78.2605 10.3075C80.832 11.48 83.9436 9.49842 86.6325 10.3778C88.0651 10.8469 89.1453 12.078 90.5661 12.5822C91.1532 12.7933 91.9047 13.0395 91.9399 13.661C91.9399 13.8252 91.9399 13.9776 91.9399 14.1417C91.9399 14.6342 92.4331 14.986 92.9145 15.0798C93.4009 15.1146 93.8897 15.091 94.3705 15.0094C95.3883 14.9622 96.3877 15.2921 97.1769 15.9358C97.4 16.1234 97.0242 16.4048 96.8246 16.6158C96.3667 17.0731 96.8246 17.9291 97.5174 18.0346C98.1602 18.0486 98.7956 17.8951 99.3609 17.5891C100.486 17.1374 101.736 17.1041 102.883 17.4953C103.452 17.7037 103.957 18.0549 104.35 18.5149C104.742 18.975 105.01 19.5284 105.126 20.1218C105.161 20.2025 105.173 20.291 105.162 20.3781C105.15 20.4651 105.116 20.5476 105.062 20.617C105.008 20.6863 104.937 20.7401 104.855 20.7726C104.774 20.8051 104.685 20.8152 104.598 20.8019C103.86 20.8193 103.134 20.621 102.508 20.2314C101.882 19.8418 101.384 19.2779 101.075 18.6092C101.027 18.4364 100.924 18.2841 100.782 18.1753C100.704 18.1274 100.614 18.1029 100.523 18.105C99.6427 18.105 99.1965 19.3362 99.6309 20.1218C100.166 20.8418 100.933 21.3553 101.803 21.5758C102.783 21.9702 103.797 22.2725 104.833 22.4786C106.108 22.631 107.397 22.631 108.672 22.4786C111.016 22.3486 113.346 22.023 115.635 21.5054L114.579 20.0397C114.061 19.2168 113.382 18.5068 112.582 17.9526C110.962 17.0145 108.731 17.4484 107.287 16.2523C106.917 15.8505 106.499 15.496 106.042 15.197C105.671 15.0388 105.271 14.959 104.868 14.9625C102.962 14.8571 101.052 14.8806 99.1495 15.0329C98.5109 15.1405 97.8553 15.0799 97.2473 14.857C96.2492 14.3528 95.9792 13.063 95.3099 12.1836C94.701 11.4869 93.9478 10.9308 93.1024 10.5537L91.7286 9.80328C91.4411 9.62677 91.1337 9.48507 90.8127 9.38116C90.1669 9.19355 89.4623 9.38116 88.8048 9.19355C88.19 9.03991 87.6062 8.78212 87.0787 8.43139L83.8966 6.56703C83.5701 6.33962 83.1972 6.18743 82.8046 6.12145C81.9709 6.03938 81.1608 6.73118 80.3506 6.49667C80.0691 6.38491 79.8044 6.23498 79.5638 6.0511C78.855 5.63216 78.0273 5.45906 77.2096 5.55873C76.392 5.65841 75.6303 6.02528 75.0432 6.6022C74.9601 6.67426 74.8923 6.76224 74.8439 6.86093C74.7955 6.95963 74.7674 7.06703 74.7614 7.17676C74.7848 7.59888 75.3015 7.75131 75.7125 7.79821Z" fill="#E0E0E0"/>
<path d="M134.751 90.0284C134.573 89.4935 134.303 88.9936 133.953 88.551C133.598 88.1952 133.204 87.8805 132.779 87.613C131.416 86.6323 130.42 85.225 129.949 83.6146C130.203 83.4393 130.417 83.2114 130.575 82.9463C130.733 82.6812 130.832 82.3852 130.865 82.0785C131.192 80.3718 131.168 78.6164 130.794 76.9193C130.336 75.0432 129.162 73.554 126.943 74.152C126.703 74.2412 126.448 74.2849 126.191 74.281C125.182 74.2107 124.371 72.7332 123.502 73.2374C122.739 72.8739 123.444 71.5841 122.974 70.8923C122.763 70.5757 122.305 70.3764 122.328 69.9894C122.352 69.6025 122.504 69.6025 122.587 69.4032C122.619 69.2664 122.622 69.1243 122.597 68.9861C122.571 68.8479 122.516 68.7167 122.437 68.6007C122.357 68.4848 122.254 68.3868 122.134 68.3129C122.015 68.2391 121.881 68.1911 121.741 68.172C121.458 68.1505 121.173 68.1872 120.904 68.28C120.636 68.3728 120.389 68.5196 120.179 68.7114C119.755 69.0911 119.295 69.4289 118.806 69.7198C119.309 70.25 119.678 70.8927 119.883 71.5944C120.087 72.296 120.12 73.0362 119.98 73.7534C119.013 73.9237 118.016 73.7406 117.174 73.2374C117.01 73.0818 116.819 72.9584 116.61 72.8739C116.418 72.8493 116.223 72.8777 116.046 72.956C114.998 73.4137 114.084 74.1323 113.393 75.0432L113.216 75.2425C112.747 74.2248 111.987 73.3682 111.032 72.7801C110.304 72.8739 109.976 73.8003 110.093 74.539C110.211 75.2777 110.598 75.9343 110.668 76.673C110.363 77.5173 108.86 76.8137 108.32 77.4704C108.196 77.6606 108.13 77.8825 108.13 78.1094C108.13 78.3363 108.196 78.5583 108.32 78.7485C108.555 79.1471 108.907 79.452 109.13 79.921L107.381 82.6648C107.263 82.2778 107.087 81.8323 106.688 81.7502C106.289 81.6681 105.807 82.3013 105.702 82.8407C105.596 83.3801 105.42 84.0132 104.88 84.1422C105.103 84.8223 106.23 84.4236 106.782 84.8809C107.334 85.3382 107.099 85.8776 107.134 86.417C107.169 86.9563 107.709 87.5895 108.144 87.2729C108.23 87.187 108.299 87.0846 108.345 86.9719C108.392 86.8591 108.415 86.7382 108.414 86.6163C108.687 84.7808 109.441 83.0498 110.598 81.5978C110.97 81.231 111.213 80.7538 111.291 80.2376C111.291 79.792 111.021 79.3347 111.185 78.9243C111.349 78.5139 112.207 78.4084 112.794 78.1622C112.669 78.4091 112.511 78.6379 112.324 78.8423C111.96 79.1195 111.66 79.4713 111.443 79.8741C111.279 80.39 111.537 81.0467 111.267 81.4688C111.103 81.6858 110.909 81.8791 110.692 82.0433C110.168 82.6622 109.866 83.4381 109.835 84.2477C109.453 85.8868 109.51 87.5974 109.999 89.2077C110.44 89.9884 110.805 90.8089 111.091 91.6583C110.633 92.0101 109.917 91.6583 109.553 91.2245C109.189 90.7906 108.625 90.2864 108.026 90.474C107.428 90.6616 107.216 91.0955 106.852 90.9196C106.993 90.322 106.932 89.6948 106.679 89.1352C106.427 88.5756 105.996 88.1147 105.455 87.824C105.317 87.7687 105.202 87.6701 105.125 87.5431C105.049 87.4161 105.016 87.2677 105.032 87.1205C104.398 87.1205 104.116 87.8827 103.987 88.5158C103.858 89.149 103.494 89.9229 102.813 89.8174C102.602 89.8174 102.414 89.6415 102.202 89.6532C101.721 89.6532 101.58 90.3568 101.169 90.5795C100.758 90.8023 100.371 90.5795 99.995 90.7906C99.6192 91.0017 99.6075 91.2362 99.3726 91.4238C98.809 91.8811 97.9871 91.4238 97.4 91.0251C96.8129 90.6264 95.9557 90.2043 95.4156 90.6968C94.8754 91.1893 95.0751 91.8694 94.7345 92.2915C94.394 92.7136 93.302 93.0185 93.1963 93.7337C92.9639 93.5444 92.6678 93.4511 92.3687 93.4729C92.0695 93.4947 91.7901 93.63 91.5877 93.851C91.5934 94.6908 91.8556 95.509 92.3392 96.1961C91.9018 96.6765 91.3593 97.0497 90.754 97.2866C91.0045 97.9509 91.3232 98.5875 91.7051 99.1861C91.1297 99.5613 91.2941 100.581 90.7423 100.992C90.4135 101.226 89.9673 101.168 89.5681 101.262C89.1688 101.355 88.7813 101.813 89.0279 102.129C88.9888 102.268 88.9163 102.394 88.8167 102.498C88.7171 102.602 88.5935 102.68 88.4567 102.725C88.32 102.77 88.1742 102.781 88.0323 102.757C87.8903 102.733 87.7564 102.674 87.6424 102.587C87.2901 102.141 87.1727 101.531 86.75 101.156C86.1276 100.605 85.1413 100.816 84.4016 100.499C84.1748 100.373 83.9394 100.264 83.697 100.171C82.9573 99.9248 82.1941 100.839 82.1941 101.602C82.2146 102.423 82.3409 103.239 82.5698 104.029C82.6847 104.426 82.6814 104.848 82.5605 105.244C82.4396 105.639 82.2062 105.991 81.8888 106.257C81.5483 106.479 81.0903 106.538 80.832 106.855C80.2919 107.488 80.9846 108.402 81.1255 109.2C81.1832 109.766 81.1026 110.337 80.8907 110.865C80.5972 111.779 80.057 112.882 79.1059 112.811C78.3662 112.811 77.9317 111.979 77.6617 111.263C77.5105 110.514 77.0936 109.843 76.4875 109.376C75.3133 108.707 73.7985 110.044 72.5069 109.61L72.8239 110.478C72.2251 110.619 72.0725 111.404 72.1899 112.014C72.4082 112.59 72.461 113.215 72.3425 113.82C72.0842 114.5 71.2623 114.746 70.546 114.91C70.7825 115.697 70.8267 116.53 70.6752 117.337C70.9452 117.619 70.3464 118.334 69.9589 118.404C69.5637 118.409 69.1694 118.366 68.7847 118.275C68.3864 118.262 67.9957 118.387 67.6789 118.628C67.3621 118.87 67.1388 119.213 67.0469 119.6L69.3953 120.28C69.6678 120.386 69.9634 120.419 70.2524 120.374C70.5408 120.275 70.8022 120.111 71.0157 119.893C72.8592 118.322 75.7125 117.548 77.6734 119.026C78.0726 119.319 78.4836 119.694 78.965 119.647C79.2767 119.589 79.5634 119.438 79.787 119.213C80.6089 118.545 81.513 117.724 81.4661 116.657C81.4251 116.381 81.4251 116.101 81.4661 115.825C81.607 115.215 82.3585 115.016 82.8164 114.652C83.8967 113.655 83.1334 111.861 82.3115 110.619L85.3644 108.731C85.6114 108.539 85.9097 108.425 86.2216 108.402C86.5415 108.445 86.8493 108.553 87.1257 108.719C88.8753 109.493 90.8244 108.191 92.1748 106.831C92.7257 107.507 93.4811 107.987 94.3278 108.198C95.1745 108.409 96.0669 108.341 96.8716 108.004C97.1574 108.262 97.3326 108.621 97.361 109.005C97.3894 109.389 97.2688 109.77 97.0242 110.067C96.5155 110.652 95.8584 111.09 95.122 111.334C95.6224 111.926 95.9728 112.63 96.1436 113.386C96.2135 113.766 96.1456 114.159 95.952 114.494C95.7584 114.83 95.4517 115.085 95.0868 115.215L95.5212 116.012C96.1591 115.838 96.8352 115.862 97.4587 116.083C97.7493 116.199 97.9932 116.408 98.1525 116.678C98.3118 116.947 98.3774 117.261 98.3393 117.572C97.3178 118.135 96.0614 117.713 94.9341 117.408C93.8069 117.103 92.3744 117.068 91.7403 118.041C91.3103 119.052 90.581 119.907 89.6502 120.491C89.8474 120.145 89.9264 119.744 89.8756 119.348C89.8248 118.953 89.6468 118.585 89.3684 118.299C88.5465 117.83 87.6071 118.651 87.02 119.471C86.4329 120.292 85.6932 121.16 84.7891 120.89C84.472 120.796 84.1902 120.55 83.8614 120.574C83.6899 120.606 83.527 120.673 83.3834 120.772C83.2398 120.871 83.1186 120.999 83.0278 121.148C82.7256 121.434 82.4838 121.777 82.3164 122.158C82.149 122.539 82.0595 122.949 82.0532 123.364C82.1588 124.185 83.3448 124.795 83.8262 124.115C83.6031 123.294 83.4857 122.203 84.2372 121.77C84.9887 121.336 85.975 122.391 85.7754 123.27C85.6252 123.697 85.3664 124.076 85.0247 124.372C84.6829 124.668 84.2699 124.871 83.8262 124.959C82.9436 125.118 82.0756 125.349 81.2312 125.651C80.8907 125.803 80.5737 126.307 80.9025 126.495C81.2263 126.68 81.6101 126.731 81.971 126.636C82.0994 126.987 82.1141 127.369 82.0129 127.729C81.9118 128.089 81.7 128.408 81.4074 128.641C81.1057 128.861 80.7418 128.979 80.3682 128.979C79.9946 128.979 79.6307 128.861 79.329 128.641C78.0609 127.703 78.5423 125.592 77.6029 124.314C77.4079 124.051 77.1576 123.834 76.8695 123.678C76.5815 123.522 76.2627 123.431 75.9356 123.411C75.2538 123.474 74.6036 123.727 74.0594 124.142C73.5152 124.556 73.0992 125.116 72.8592 125.756C72.7525 126.036 72.5839 126.289 72.366 126.495C71.8376 126.917 71.0861 126.671 70.4286 126.495C69.771 126.319 68.8904 126.413 68.726 127.07C70.117 128.74 71.8998 130.041 73.916 130.857C74.1164 130.913 74.2909 131.038 74.4091 131.209C74.4812 131.438 74.4812 131.683 74.4091 131.912C74.4382 132.238 74.5333 132.555 74.6887 132.843C74.8441 133.132 75.0566 133.385 75.3133 133.589C75.7133 134.089 76.2525 134.461 76.8632 134.656C77.4855 134.797 78.2605 134.398 78.2605 133.753C78.2605 132.581 76.053 132.381 76.1 131.197C76.5147 131 76.9702 130.903 77.4294 130.916C77.8886 130.928 78.3383 131.048 78.7419 131.267C78.9913 131.714 79.3327 132.104 79.7437 132.409C80.1546 132.715 80.6257 132.93 81.126 133.041C81.6263 133.152 82.1445 133.156 82.6463 133.052C83.1482 132.948 83.6223 132.74 84.0376 132.44C84.7303 131.865 85.2118 131.009 86.1159 130.751C87.4897 130.353 88.6874 131.678 89.9908 132.287C91.6464 133.05 93.5838 132.604 95.3451 132.147L99.8423 130.974L97.3178 130.658C98.698 130.254 100.003 129.629 101.181 128.805C101.143 128.454 100.99 128.126 100.746 127.871C100.502 127.617 100.18 127.45 99.8306 127.398C101.733 127.023 102.261 124.408 103.917 123.388C104.488 123.146 105.038 122.855 105.561 122.52C105.867 122.193 106.098 121.803 106.24 121.378C106.382 120.953 106.431 120.503 106.383 120.058C106.347 119.015 106.098 117.99 105.652 117.047C105.206 116.103 104.571 115.26 103.788 114.57C105.002 115.098 106.335 115.296 107.651 115.145C107.651 115.954 108.226 117.091 108.825 116.646C109.005 116.496 109.136 116.296 109.201 116.071L110.375 113.046C110.609 112.28 111.01 111.575 111.549 110.982C112.512 110.079 114.085 109.974 114.86 108.895C114.755 109.364 115.365 109.751 115.823 109.61C116.269 109.404 116.617 109.034 116.798 108.578C117.361 107.511 117.573 105.846 116.446 105.412C115.318 104.979 113.862 105.928 113.463 104.92C113.381 104.648 113.381 104.359 113.463 104.087C113.823 102.665 114.497 101.342 115.435 100.214C116.374 99.0854 117.554 98.1815 118.888 97.568C119.78 97.1693 120.919 96.6651 120.919 95.6919C121.076 95.7196 121.226 95.779 121.359 95.8663C121.492 95.9536 121.606 96.0671 121.694 96.1998C121.782 96.3326 121.842 96.4818 121.87 96.6384C121.898 96.795 121.894 96.9557 121.859 97.1107C122.555 97.2021 123.259 97.0169 123.819 96.5948C123.35 96.2547 123.491 95.4222 123.89 95.047C124.289 94.6718 124.853 94.4021 125.276 94.0151C126.45 92.9129 126.661 90.5678 128.281 90.3099C129.456 90.7906 129.338 92.655 128.822 93.8275C128.305 95.0001 127.706 96.5948 128.61 97.5563C128.794 97.1301 129.071 96.7501 129.42 96.4439C129.77 96.1377 130.183 95.9129 130.63 95.7857C130.218 96.3145 129.967 96.9496 129.904 97.6164C129.842 98.2831 129.971 98.9538 130.278 99.5496C130.889 98.1521 131.974 97.0145 133.342 96.3368C133.272 95.9499 133.19 95.5629 133.119 95.1643C134.188 95.4222 135.221 94.3786 135.397 93.2882C135.482 92.1632 135.259 91.0363 134.751 90.0284Z" fill="#E0E0E0"/>
<path d="M37.6332 113.41C37.1048 113.023 36.459 112.671 36.3181 112.026C36.2359 111.733 36.2593 111.358 36.0362 111.147C35.7008 110.96 35.3124 110.889 34.9325 110.948C33.8276 110.985 32.7328 110.726 31.7622 110.197C31.4973 110.01 31.2039 109.868 30.8932 109.775C30.5524 109.705 30.2008 109.705 29.8599 109.775C28.8946 109.996 27.9941 110.438 27.2298 111.067C26.4655 111.696 25.8584 112.494 25.4567 113.398C25.3323 113.965 25.0563 114.488 24.6582 114.911C24.4338 115.07 24.2289 115.255 24.0477 115.462C24.0054 115.554 23.9836 115.654 23.9836 115.755C23.9836 115.856 24.0054 115.956 24.0477 116.048C24.1849 116.491 24.4242 116.896 24.7464 117.23C25.0686 117.564 25.4647 117.818 25.9029 117.971C26.2317 118.088 26.6192 118.194 26.7013 118.522C26.7297 118.807 26.7297 119.094 26.7013 119.378C26.7013 120.094 27.629 120.222 28.1456 120.633C28.6623 121.043 28.8266 122.204 29.4255 122.79C30.0012 123.215 30.6845 123.471 31.3981 123.529L33.3708 123.893C34.1797 124.12 35.0295 124.162 35.8569 124.015C36.6843 123.869 37.468 123.539 38.1498 123.048C38.5348 122.732 38.8525 122.341 39.0844 121.9C39.3162 121.459 39.4576 120.977 39.5001 120.48C39.4993 119.699 39.3185 118.929 38.9717 118.229C39.223 118.158 39.4525 118.026 39.6391 117.843C39.8258 117.661 39.9637 117.435 40.0403 117.186C40.0943 116.99 40.1087 116.785 40.0824 116.584C40.0562 116.383 39.99 116.188 39.8876 116.013C39.3757 114.964 38.5986 114.067 37.6332 113.41Z" fill="#E0E0E0"/>
<path d="M104.293 130.493C104.763 130.628 105.261 130.631 105.733 130.503C106.205 130.375 106.633 130.12 106.97 129.766C107.1 129.65 107.187 129.493 107.216 129.321C107.227 129.234 107.203 129.146 107.151 129.077C107.098 129.007 107.021 128.96 106.934 128.945C106.113 129.578 104.727 129.215 104.128 130.118C104.095 130.151 104.071 130.192 104.059 130.238C104.046 130.283 104.046 130.33 104.058 130.376C104.086 130.411 104.122 130.44 104.162 130.46C104.203 130.48 104.247 130.491 104.293 130.493Z" fill="#E0E0E0"/>
<path d="M99.7367 132.053C99.5848 132.081 99.4382 132.133 99.3022 132.206C98.7386 132.452 98.128 132.428 97.5174 132.639C97.1506 132.79 96.8067 132.991 96.4959 133.237L94.6758 134.539L98.6329 133.671C98.9764 133.615 99.3116 133.516 99.631 133.378C100.141 133.084 100.635 132.763 101.11 132.417L100.101 132.1C99.9825 132.066 99.8597 132.05 99.7367 132.053Z" fill="#E0E0E0"/>
<path d="M114.074 23.2641C114.008 23.0924 113.894 22.943 113.747 22.833C113.599 22.723 113.424 22.657 113.24 22.6426C112.877 22.6181 112.513 22.67 112.171 22.7951C111.125 23.126 110.127 23.5911 109.201 24.1787C108.958 24.3137 108.74 24.488 108.555 24.6946C108.162 25.3277 108.019 26.0845 108.156 26.8169L110.387 26.7466C110.589 26.7232 110.794 26.7232 110.997 26.7466C111.405 26.8431 111.799 26.9888 112.171 27.1804C112.655 27.3783 113.177 27.4626 113.698 27.4267C113.799 27.2868 113.854 27.1185 113.854 26.9459C113.854 26.7733 113.799 26.6051 113.698 26.4652C113.505 26.1814 113.369 25.8628 113.299 25.5271C113.228 24.7181 114.32 24.0497 114.074 23.2641Z" fill="#E0E0E0"/>
<path d="M111.22 34.9533C111.725 34.9997 112.227 35.0741 112.723 35.1761C113.24 35.2774 113.776 35.2074 114.25 34.9768C114.478 34.8476 114.657 34.6457 114.757 34.4035C114.857 34.1612 114.873 33.8924 114.802 33.64C114.607 33.2712 114.286 32.9843 113.898 32.831L112.935 32.3385C112.719 32.2495 112.535 32.0984 112.406 31.9047C112.23 31.5412 112.488 31.1073 112.759 30.8025C113.029 30.4976 113.322 30.1106 113.216 29.712C113.136 29.5018 112.993 29.3216 112.806 29.196C112.289 28.7684 111.716 28.4134 111.103 28.1407C110.863 28.026 110.605 27.9545 110.34 27.9297C109.982 27.9318 109.63 28.0118 109.306 28.1642L107.733 28.7739C107.563 28.8151 107.404 28.8904 107.265 28.9952C107.125 29.1001 107.009 29.2322 106.923 29.3837C106.794 29.7002 107.134 30.1575 107.439 29.9817C107.698 30.6383 106.97 31.2363 106.794 31.9164C106.716 32.4239 106.794 32.943 107.017 33.4055C107.095 33.7413 107.239 34.0583 107.44 34.3381C107.642 34.6178 107.897 34.8549 108.191 35.0354C108.385 35.1141 108.592 35.1578 108.802 35.1644C109.623 35.1761 110.375 34.9299 111.22 34.9533Z" fill="#E0E0E0"/>
<path d="M122.046 25.1992C122.206 25.3439 122.4 25.4449 122.61 25.4923C122.714 25.5144 122.823 25.4965 122.914 25.4421C123.006 25.3878 123.073 25.301 123.103 25.1992C123.114 25.0418 123.064 24.8863 122.962 24.7653L122.34 23.7804C122.176 23.4837 121.961 23.2179 121.706 22.9948C121.572 22.8882 121.414 22.8182 121.245 22.7914C121.076 22.7647 120.903 22.7823 120.743 22.8423C120.679 23.0763 120.67 23.3219 120.717 23.5599C120.764 23.7979 120.865 24.0219 121.013 24.2142C121.304 24.5945 121.653 24.9268 122.046 25.1992Z" fill="#E0E0E0"/>
<path d="M126.262 30.7093C126.583 30.881 126.886 31.0854 127.166 31.3191C127.321 31.513 127.451 31.7258 127.553 31.9523C127.897 32.611 128.407 33.1688 129.033 33.5704C129.084 33.1267 129.052 32.6774 128.939 32.2454C128.91 32.0794 128.841 31.9226 128.739 31.7881C128.587 31.6507 128.412 31.5397 128.223 31.4598C127.807 31.2334 127.461 30.8966 127.225 30.4866C127.135 30.3043 127.033 30.128 126.919 29.9589C126.579 29.4899 125.98 29.2788 125.604 28.8567C125.428 28.6691 125.299 28.4346 125.111 28.2704C125.026 28.1908 124.921 28.1364 124.807 28.1136C124.693 28.0908 124.574 28.1005 124.465 28.1414L125.299 29.4782C125.534 29.9486 125.862 30.3672 126.262 30.7093Z" fill="#E0E0E0"/>
<path d="M122.293 107.875C122.214 107.815 122.122 107.772 122.025 107.75C121.928 107.728 121.827 107.727 121.729 107.746C121.542 107.816 121.424 108.086 121.565 108.227C121.255 108.333 120.93 108.392 120.602 108.403C120.273 108.403 119.909 108.649 119.886 108.977C119.904 109.09 119.904 109.205 119.886 109.317C119.816 109.528 119.51 109.61 119.487 109.833C119.463 110.056 119.639 110.162 119.804 110.173C119.982 110.167 120.155 110.105 120.297 109.997C120.572 109.755 120.897 109.575 121.248 109.47C121.612 109.47 122.058 109.669 122.023 110.033C122.251 109.998 122.464 109.898 122.635 109.744C122.807 109.589 122.928 109.388 122.986 109.165C122.979 108.911 122.913 108.662 122.793 108.438C122.672 108.214 122.501 108.021 122.293 107.875Z" fill="#E0E0E0"/>
<path d="M115.13 53.8196C115.092 54.4156 115.172 55.0133 115.365 55.5784C115.506 56.0826 115.635 56.5868 115.776 57.091C115.917 57.5952 116.082 58.0877 116.539 58.2635C116.803 58.3121 117.07 58.3435 117.338 58.3574C117.902 58.4863 118.289 59.0961 118.864 59.143C119.44 59.1899 120.039 58.4629 120.039 57.7945C120.039 57.1262 119.909 56.4461 120.039 55.7777C120.088 55.3769 120.264 55.0021 120.54 54.7072C120.817 54.4123 121.18 54.2124 121.577 54.1361C121.86 54.1517 122.143 54.1119 122.41 54.0189C122.571 53.9018 122.704 53.7507 122.799 53.5763C122.895 53.402 122.95 53.2088 122.962 53.0105C123.144 52.3863 123.144 51.7234 122.962 51.0992C122.751 50.5364 122.234 50.0908 122.105 49.4928C121.863 49.4416 121.61 49.48 121.394 49.6008C121.179 49.7215 121.014 49.9165 120.931 50.1495C120.775 50.6383 120.746 51.1591 120.849 51.6621C120.849 51.3572 119.675 52.2132 119.675 52.2718C119.359 52.5504 118.98 52.7475 118.571 52.8456C118.161 52.9438 117.734 52.94 117.326 52.8346C116.246 52.5766 115.33 52.3187 115.13 53.8196Z" fill="#E0E0E0"/>
<path d="M108.461 74.1285C108.739 73.869 108.918 73.5206 108.966 73.1436C109.157 72.3672 109.116 71.5519 108.848 70.7984C108.577 70.1544 108.095 69.6215 107.48 69.287C106.866 68.9526 106.156 68.8364 105.467 68.9575C105.103 69.0279 104.692 69.1686 104.375 68.9575C104.058 68.7465 103.999 68.4182 103.752 68.1954C103.33 67.8084 102.578 68.0429 102.191 68.4064C101.802 68.8298 101.33 69.169 100.805 69.4031C100.689 69.1739 100.501 68.9889 100.27 68.8767C100.039 68.7644 99.7773 68.731 99.5253 68.7816C99.2713 68.8526 99.0486 69.0068 98.8931 69.2195C98.7376 69.4322 98.6584 69.691 98.6681 69.9542C98.6681 70.6226 99.2787 71.1268 99.5605 71.7248C99.7121 72.1027 99.7761 72.51 99.7477 72.9161C99.7192 73.3223 99.599 73.7167 99.3961 74.0699C98.9684 74.7844 98.3768 75.3873 97.67 75.8287C97.4766 75.9416 97.3086 76.0933 97.1769 76.2743C97.0241 76.6503 97.0241 77.0709 97.1769 77.4468C97.4352 78.4318 97.7405 79.3933 98.081 80.3548C98.6094 80.0265 99.2552 80.601 99.5135 81.1639C99.7719 81.7267 100.065 82.4302 100.688 82.5357C101.31 82.6413 102.038 82.055 102.543 82.4419C102.707 82.5709 102.801 82.782 102.989 82.8641C103.071 82.8982 103.159 82.9158 103.247 82.9158C103.336 82.9158 103.424 82.8982 103.506 82.8641C103.832 82.6996 104.119 82.4653 104.344 82.1778C104.57 81.8903 104.729 81.5567 104.811 81.2007C104.893 80.8447 104.895 80.475 104.818 80.1181C104.74 79.7611 104.585 79.4256 104.363 79.1353C104.788 78.3251 105.441 77.6567 106.242 77.2123C106.467 77.1173 106.667 76.973 106.829 76.7902C107.228 76.2508 106.723 75.3949 107.122 74.8438C107.522 74.2927 108.026 74.4568 108.461 74.1285Z" fill="#E0E0E0"/>
<path d="M110.88 48.9298C110.328 45.2597 107.428 40.8509 102.837 40.0888C101.204 39.6546 99.4732 39.7736 97.9156 40.4271C96.358 41.0807 95.0616 42.2319 94.2296 43.7002C93.4475 45.2087 93.1045 46.9058 93.2394 48.5991C93.3743 50.2924 93.9817 51.9141 94.9928 53.28C96.0332 54.6115 97.3748 55.6777 98.9077 56.3911C100.441 57.1044 102.121 57.4447 103.811 57.384C104.863 57.4017 105.908 57.2027 106.88 56.7992C107.852 56.3957 108.73 55.7964 109.459 55.0389C110.117 54.1799 110.584 53.1907 110.829 52.1373C111.074 51.0839 111.091 49.9905 110.88 48.9298Z" fill="#E0E0E0"/>
</g>
<defs>
<clipPath id="clip0_1529_22937">
<rect width="140" height="141" fill="white"/>
</clipPath>
</defs>
</svg>
