<svg width="86" height="95" viewBox="0 0 86 95" fill="none" xmlns="http://www.w3.org/2000/svg">
<path d="M11.7701 66.8012C11.7701 66.8012 10.9656 71.9888 11.1636 73.3674C11.3616 74.746 21.0932 80.8206 28.5242 83.6846C35.9551 86.5487 48.3919 88.5036 49.192 88.2193C49.9921 87.935 53.4869 82.4508 53.4869 82.4508L11.7701 66.8012Z" fill="url(#paint0_linear_1528_4064)"/>
<path d="M12.3476 65.9468C16.3091 62.7948 51.4898 75.7147 53.5084 81.8111C55.4416 87.7263 5.88524 71.0982 12.3476 65.9468Z" fill="#5855FF"/>
<g style="mix-blend-mode:multiply" opacity="0.3">
<path d="M18.2701 78.6406C18.2701 78.6406 31.435 84.0812 39.5349 84.7466C47.8059 85.4313 50.5407 83.6702 52.0074 83.0658C53.474 82.4613 43.3944 74.2095 43.3944 74.2095L39.8084 71.9383C39.8084 71.9383 50.1075 80.5867 47.3247 82.6334C41.2654 87.1214 14.6424 76.3768 14.6424 76.3768L18.2701 78.6406Z" fill="#0500FF"/>
</g>
<g style="mix-blend-mode:multiply" opacity="0.3">
<path d="M11.1798 71.6738C11.1798 71.6738 19.5954 77.1165 21.851 74.8276C24.1065 72.5386 13.2072 65.6085 13.2072 65.6085L13.8076 65.5201C13.8076 65.5201 27.4724 75.7231 22.3398 75.9751C17.2071 76.2271 11.6049 74.0133 11.6049 74.0133C11.6049 74.0133 10.6241 74.1422 11.1798 71.6738Z" fill="#0500FF"/>
</g>
<path d="M24.8295 81.0906C24.8295 81.0906 32.0835 84.0112 37.7819 84.9286C41.3984 85.4623 45.0877 85.2526 48.6259 84.3123C48.6259 84.3123 39.9968 86.8116 24.8295 81.0906Z" fill="#4743FD"/>
<path d="M14.4654 74.9288C16.6586 75.5977 18.9133 76.0462 21.1963 76.2675C23.8923 76.3786 23.4953 75.1339 23.4953 75.1339C23.4953 75.1339 23.4336 76.1395 21.3183 76.1118C19.2031 76.0841 14.4654 74.9288 14.4654 74.9288Z" fill="#0500FF"/>
<g style="mix-blend-mode:multiply" opacity="0.3">
<path d="M25.2269 76.074C23.4785 75.5172 23.1144 77.0456 18.6986 76.7864C14.2829 76.5271 24.9875 80.2786 33.1703 82.1379C41.3532 83.9973 44.2926 83.477 44.9172 82.8833C45.5417 82.2896 36.0393 79.9685 32.2631 78.513C28.4868 77.0575 25.2269 76.074 25.2269 76.074Z" fill="#0500FF"/>
</g>
<g style="mix-blend-mode:multiply" opacity="0.3">
<path d="M34.4963 85.2617C33.5905 84.4915 46.1709 85.5503 49.241 84.5501C52.3111 83.5499 50.263 86.9716 48.5562 87.5146C46.8494 88.0577 34.4963 85.2617 34.4963 85.2617Z" fill="#0500FF"/>
</g>
<g style="mix-blend-mode:soft-light" opacity="0.5">
<path d="M24.3149 75.3802C22.8557 74.8178 23.7533 74.2202 25.0932 73.9646C26.4332 73.709 43.3792 80.3106 46.4823 81.6002C49.5854 82.8897 38.3016 81.0439 24.3149 75.3802Z" fill="white"/>
</g>
<g style="mix-blend-mode:soft-light" opacity="0.5">
<path d="M13.3072 66.2158C12.2218 65.7506 11.968 68.1404 13.8275 69.637C15.687 71.1335 19.982 73.3971 20.9978 73.3987C22.0136 73.4003 19.0883 68.6701 13.3072 66.2158Z" fill="white"/>
</g>
<path d="M60.244 49.3164C64.2331 47.4617 73.3334 35.8486 73.3334 35.8486L49.0724 29.8667L27.0723 18.0186C27.0723 18.0186 26.0515 32.7457 27.8045 36.8135C29.5575 40.8814 34.2304 44.9829 34.5975 49.7877C34.9578 54.4494 27.6099 54.2688 23.7971 57.8602C22.5514 59.1165 21.495 60.5484 20.6615 62.1104C19.5224 64.215 18.5747 66.418 17.8298 68.6924C17.8298 68.6924 21.1158 71.8226 31.4786 75.8167C41.2267 79.5738 46.385 79.6982 46.385 79.6982C47.2006 77.843 47.8759 75.9293 48.4053 73.9732V73.9732C49.0081 71.9117 49.2715 69.7664 49.1851 67.6219C48.7554 62.3953 43.1735 57.5926 46.5355 54.3654C50.0283 51.0405 56.331 51.1147 60.244 49.3164ZM44.7172 62.8274C46.5719 68.0808 44.1241 75.3176 42.7397 76.5542C41.3553 77.7908 32.6854 74.4571 32.6854 74.4571C32.6854 74.4571 24.0047 71.1113 23.8245 69.2639C23.6442 67.4164 26.6985 60.3978 31.5509 57.7529C36.573 55.0096 38.4398 53.4676 39.164 49.6761C39.8882 45.8846 36.4263 43.8953 33.5178 39.967C30.6093 36.0386 31.2028 23.8293 33.2001 22.2909L49.582 30.5777L67.2947 35.4317C67.7054 37.9294 60.0625 47.3515 55.196 48.3222C50.3294 49.2928 46.5493 48.3506 44.494 51.7304C42.4387 55.1103 42.8353 57.4232 44.7172 62.8274Z" fill="url(#paint1_linear_1528_4064)"/>
<path d="M26.1123 6.21597C26.1123 6.21597 24.9295 13.8546 25.192 15.8507C25.4546 17.8469 38.7204 26.3676 48.8873 30.2861C59.0542 34.2047 76.2244 36.6816 77.3255 36.2404C78.4266 35.7992 83.6035 27.7427 83.6035 27.7427L26.1123 6.21597Z" fill="url(#paint2_linear_1528_4064)"/>
<path d="M26.9031 4.96922C32.4451 0.172661 81.1587 17.981 83.6487 26.8402C86.0569 35.3481 17.9493 12.7398 26.9031 4.96922Z" fill="#6B68FF"/>
<path opacity="0.5" d="M63.2827 42.3776C60.8002 45.1951 57.6737 47.8112 55.2035 48.3018C50.7975 49.1848 47.1853 48.471 45.0344 50.9718C44.8363 51.2024 44.6581 51.4493 44.5016 51.71C42.46 54.9938 42.8428 57.4028 44.7247 62.807C46.5794 68.0604 44.1316 75.2972 42.7472 76.5337C41.3628 77.7703 32.693 74.4366 32.693 74.4366C32.693 74.4366 24.0123 71.0909 23.832 69.2434C23.6518 67.396 26.6982 60.3977 31.5506 57.7528C36.0711 55.2841 38.0366 53.788 38.9063 50.7466C39.0083 50.3934 39.092 50.0352 39.1569 49.6735C39.8814 45.7807 36.4193 43.8926 33.5107 39.9643C32.7665 38.8378 32.2625 37.5684 32.0305 36.2355L32.0488 36.188C30.9351 31.0253 31.7073 23.4857 33.22 22.2986L49.6019 30.5855L67.3147 35.4394C67.5147 36.6316 65.7469 39.6077 63.2827 42.3776Z" fill="url(#paint3_radial_1528_4064)"/>
<path d="M63.2938 42.3505C60.8113 45.1679 57.6848 47.784 55.2146 48.2746C50.8086 49.1576 47.1964 48.4439 45.0454 50.9446C43.214 52.2741 38.7631 60.6416 38.156 60.2438C37.5489 59.8461 39.0083 54.0063 38.9319 50.7016C39.034 50.3485 39.1176 49.9903 39.1826 49.6285C39.9071 45.7358 36.4449 43.8477 33.5364 39.9194C32.7922 38.7929 32.2882 37.5234 32.0562 36.1906L32.0745 36.1431L63.2938 42.3505Z" fill="url(#paint4_linear_1528_4064)"/>
<path d="M31.825 35.018C33.2809 31.0796 62.6359 41.2785 63.1101 42.2021C63.5843 43.1257 56.167 47.1916 43.4294 42.9373C30.6918 38.683 31.825 35.018 31.825 35.018Z" fill="url(#paint5_linear_1528_4064)"/>
<path d="M42.748 76.5338C41.2325 78.4529 25.4527 72.449 23.8328 69.2435C23.6501 68.8923 23.5395 66.6428 24.982 65.6781C28.6234 63.2761 36.7315 61.3636 37.6355 61.595C38.6865 61.8675 43.6181 68.9618 44.1848 73.1885L44.1691 73.2292C44.3238 74.2168 43.0412 76.1555 42.748 76.5338Z" fill="url(#paint6_linear_1528_4064)"/>
<g style="mix-blend-mode:multiply" opacity="0.3">
<path d="M28.916 38.8018C29.867 40.26 36.6936 44.209 38.3838 47.0908C40.0741 49.9725 37.9514 53.7085 35.6134 54.6009C33.2754 55.4934 34.6552 53.5844 35.1271 50.2259C35.5991 46.8675 28.916 38.8018 28.916 38.8018Z" fill="#912790"/>
</g>
<g style="mix-blend-mode:multiply" opacity="0.3">
<path d="M60.2449 49.3156C58.4333 49.9898 49.9368 47.4949 46.3633 50.2038C42.7898 52.9127 43.5529 55.905 44.3458 56.928C45.1386 57.951 45.3622 54.029 49.0913 52.386C52.8204 50.743 57.1353 50.7606 60.2449 49.3156Z" fill="#912790"/>
</g>
<g style="mix-blend-mode:soft-light">
<path d="M29.0564 26.6992C27.9307 27.6066 27.8058 35.0369 29.2553 37.0538C30.7048 39.0707 31.3006 36.3371 31.3115 35.2417C31.3225 34.1464 30.6254 25.4869 29.0564 26.6992Z" fill="white"/>
</g>
<path d="M28.1739 56.7306C27.1066 58.1513 30.6552 56.8137 32.5073 55.3291C34.3595 53.8444 29.6377 54.7844 28.1739 56.7306Z" fill="white"/>
<path d="M46.4197 63.1631C45.9234 63.042 45.4345 66.8063 47.103 67.73C48.7716 68.6538 48.761 63.7303 46.4197 63.1631Z" fill="white"/>
<g style="mix-blend-mode:multiply" opacity="0.5">
<path d="M32.8433 37.3518C32.8433 37.3518 36.7826 45.2489 41.2066 47.4999C45.6306 49.7509 53.5576 48.7511 55.8737 47.6942C57.6976 46.7659 59.4032 45.6191 60.9531 44.279C60.9531 44.279 55.1934 46.1376 46.619 44.0259C41.5983 42.825 36.8991 40.5484 32.8433 37.3518V37.3518Z" fill="#0500FF"/>
</g>
<g style="mix-blend-mode:multiply" opacity="0.5">
<path d="M42.7478 76.5341C41.2322 78.4532 25.4524 72.4493 23.8326 69.2438C23.6498 68.8926 23.5392 66.6431 24.9818 65.6785C24.8849 65.9297 23.3829 68.9613 30.3057 72.2378C37.492 75.6158 41.5772 72.9481 43.8862 73.0972C43.9944 73.1016 44.1006 73.1266 44.1992 73.1711L44.1835 73.2118C44.3236 74.2172 43.041 76.1559 42.7478 76.5341Z" fill="#E09590"/>
</g>
<g style="mix-blend-mode:soft-light" opacity="0.5">
<path d="M37.6359 61.5718C36.5411 60.8691 35.0269 67.4754 35.5535 69.7527C36.0802 72.03 41.7196 72.3554 42.6922 71.7243C43.6648 71.0932 39.7589 62.9282 37.6359 61.5718Z" fill="white"/>
</g>
<g style="mix-blend-mode:multiply" opacity="0.3">
<path d="M33.2268 4.36586C33.2268 4.36586 64.9778 13.8038 72.9777 20.8486C80.7891 27.7584 55.1061 21.2986 41.6318 15.614C28.1574 9.92942 26.1326 6.22469 26.1326 6.22469C26.1326 6.22469 41.9299 15.5651 56.8659 19.4503C71.9288 23.3687 30.6672 4.18254 30.6672 4.18254L33.2268 4.36586Z" fill="#0500FF"/>
</g>
<g style="mix-blend-mode:multiply" opacity="0.3">
<path d="M41.3288 26.0631C41.3288 26.0631 58.3935 31.8135 66.893 31.744C75.558 31.6681 79.5736 28.5369 80.7218 26.8662C81.8701 25.1955 79.7886 22.1006 79.7886 22.1006C79.7886 22.1006 83.2341 26.1657 81.0326 28.7172C78.8311 31.2686 63.936 33.7392 56.7409 32.5179C49.5458 31.2966 41.3288 26.0631 41.3288 26.0631Z" fill="#0500FF"/>
</g>
<path d="M59.0691 32.776C62.6164 33.2936 66.2109 33.4185 69.788 33.1486C74.8127 32.6132 80.1601 29.3481 80.1601 29.3481C80.1601 29.3481 75.6114 32.6949 59.0691 32.776Z" fill="#5E5BFD"/>
<g style="mix-blend-mode:multiply" opacity="0.3">
<path d="M36.9962 16.5096C32.5037 15.2616 31.1977 17.6436 31.1162 19.5461C31.0346 21.4486 40.545 25.8627 48.7244 27.8923C56.9037 29.9219 70.5464 31.3044 72.6671 29.7277C74.7878 28.151 61.8004 25.0481 54.4275 22.6977C47.0546 20.3474 36.9962 16.5096 36.9962 16.5096Z" fill="#0500FF"/>
</g>
<g style="mix-blend-mode:soft-light" opacity="0.5">
<path d="M38.6057 15.7565C37.4284 14.523 54.6371 21.3895 61.2366 22.4046C67.8361 23.4198 76.2647 24.984 77.2325 26.1368C78.2003 27.2896 77.9964 27.7179 77.4665 28.1064C76.9366 28.4948 51.864 23.4711 38.6057 15.7565Z" fill="white"/>
</g>
<path d="M82.1016 28.1548C81.6459 27.566 79.9731 29.0886 78.9547 30.0604C77.9363 31.0323 81.6729 29.5489 82.1229 29.0051C82.573 28.4613 82.1016 28.1548 82.1016 28.1548Z" fill="#6B68FF"/>
<path d="M50.4406 83.749C50.5087 83.0892 51.711 81.9622 51.8432 82.1223C51.9755 82.2824 52.9044 82.8509 52.4193 83.2643C51.9342 83.6776 50.4406 83.749 50.4406 83.749Z" fill="#6B68FF"/>
<path style="mix-blend-mode:screen" d="M34.2721 27.0161C31.6976 27.1935 32.2662 38.2599 37.2328 42.8879C42.1993 47.5158 43.6169 36.9732 42.5632 33.2451C41.5094 29.5169 34.2721 27.0161 34.2721 27.0161Z" fill="url(#paint7_linear_1528_4064)"/>
<g style="mix-blend-mode:multiply" opacity="0.5">
<path d="M27.0416 19.2466C27.0506 18.9616 41.3566 30.9635 49.7278 33.683C58.099 36.4026 72.5825 36.7913 72.5825 36.7913L73.351 35.8242C73.351 35.8242 57.0906 32.8791 47.7449 29.628C38.3992 26.3769 27.0898 17.9941 27.0898 17.9941L27.0416 19.2466Z" fill="#9A376D"/>
</g>
<g style="mix-blend-mode:multiply" opacity="0.5">
<path d="M45.3622 48.6732C43.2238 46.7729 51.1659 44.9289 55.6169 45.4591C60.0679 45.9893 54.5553 48.0523 52.4513 48.5592C50.3472 49.0661 45.3622 48.6732 45.3622 48.6732Z" fill="#8F8CFA"/>
</g>
<g style="mix-blend-mode:multiply" opacity="0.5">
<path d="M46.4122 79.7086C46.4122 79.7086 41.2539 79.5842 31.5058 75.8271C21.143 71.8331 17.8571 68.7028 17.8571 68.7028C18.6019 66.4284 19.5497 64.2255 20.6887 62.1208V62.1208C20.6887 62.1208 18.7764 67.5053 19.6259 69.408C20.4754 71.3106 36.501 77.4014 41.5538 78.5847C46.6066 79.7679 48.4191 73.9784 48.4191 73.9784C47.8943 75.9359 47.2235 77.8514 46.4122 79.7086V79.7086Z" fill="#9A376D"/>
</g>
<defs>
<linearGradient id="paint0_linear_1528_4064" x1="10.0927" y1="71.1533" x2="51.6656" y2="87.1763" gradientUnits="userSpaceOnUse">
<stop stopColor="#0500FF"/>
<stop offset="0.39" stopColor="#5854FD"/>
<stop offset="1" stopColor="#C2C0FF"/>
</linearGradient>
<linearGradient id="paint1_linear_1528_4064" x1="31.3773" y1="75.7777" x2="50.2133" y2="26.9064" gradientUnits="userSpaceOnUse">
<stop stopColor="#E8E5ED"/>
<stop offset="0.05" stopColor="#E5DDEA"/>
<stop offset="0.28" stopColor="#DABBDC"/>
<stop offset="0.46" stopColor="#D3A7D4"/>
<stop offset="0.59" stopColor="#D19FD1"/>
<stop offset="0.64" stopColor="#BE92C3"/>
<stop offset="0.72" stopColor="#A57FB0"/>
<stop offset="0.81" stopColor="#9272A3"/>
<stop offset="0.9" stopColor="#886B9B"/>
<stop offset="1" stopColor="#846898"/>
</linearGradient>
<linearGradient id="paint2_linear_1528_4064" x1="23.6524" y1="12.5981" x2="80.9317" y2="34.6748" gradientUnits="userSpaceOnUse">
<stop stopColor="#0500FF"/>
<stop offset="0.39" stopColor="#5854FD"/>
<stop offset="1" stopColor="#C2C0FF"/>
</linearGradient>
<radialGradient id="paint3_radial_1528_4064" cx="0" cy="0" r="1" gradientUnits="userSpaceOnUse" gradientTransform="translate(40.8499 53.2529) rotate(21.0777) scale(20.5973 32.7081)">
<stop stopColor="#E8E5ED"/>
<stop offset="0.14" stopColor="#E3DDE3"/>
<stop offset="0.42" stopColor="#DBD1D5"/>
<stop offset="0.66" stopColor="#D8CDD0"/>
<stop offset="0.68" stopColor="#D4C5CE"/>
<stop offset="0.75" stopColor="#C7ACC9"/>
<stop offset="0.83" stopColor="#BE99C5"/>
<stop offset="0.91" stopColor="#B98FC3"/>
<stop offset="1" stopColor="#B78BC2"/>
</radialGradient>
<linearGradient id="paint4_linear_1528_4064" x1="39.3818" y1="60.7475" x2="48.648" y2="36.7057" gradientUnits="userSpaceOnUse">
<stop stopColor="#5076FF"/>
<stop offset="1" stopColor="#0075FF"/>
</linearGradient>
<linearGradient id="paint5_linear_1528_4064" x1="45.4861" y1="43.81" x2="48.3758" y2="36.3122" gradientUnits="userSpaceOnUse">
<stop stopColor="#5076FF"/>
<stop offset="1" stopColor="#0075FF"/>
</linearGradient>
<linearGradient id="paint6_linear_1528_4064" x1="32.4911" y1="74.5031" x2="37.4889" y2="61.536" gradientUnits="userSpaceOnUse">
<stop stopColor="#5076FF"/>
<stop offset="1" stopColor="#0075FF"/>
</linearGradient>
<linearGradient id="paint7_linear_1528_4064" x1="31.1461" y1="33.3754" x2="43.3396" y2="38.0751" gradientUnits="userSpaceOnUse">
<stop offset="0.02" stopColor="#008DFE"/>
<stop offset="1"/>
</linearGradient>
</defs>
</svg>
